<svg id="Layer_1" data-name="Layer 1" xmlns="http://www.w3.org/2000/svg" viewBox="0 0 52.88 53.01"><defs><style>.cls-1{fill:#253b82;}</style></defs><path class="cls-1" d="M9.89,29.2l-6.34-.95.67-4.48L5.5,24l-.44,2.9L6.27,27l.4-2.69L8,24.54l-.4,2.69,1.3.2.44-2.9,1.27.19Z" transform="translate(-3.55 -3.5)"/><path class="cls-1" d="M10.65,24.11l-5.8-2.75L6,19a3.7,3.7,0,0,1,1.86-2,3.07,3.07,0,0,1,2.54.19A3.08,3.08,0,0,1,12.14,19a3.68,3.68,0,0,1-.35,2.69ZM10.14,22l.38-.79a1.91,1.91,0,0,0,.19-1.47,1.89,1.89,0,0,0-1.06-1,1.87,1.87,0,0,0-1.46-.18,2,2,0,0,0-1,1.08l-.37.79Z" transform="translate(-3.55 -3.5)"/><path class="cls-1" d="M13.85,18.16l-5-4,1-1.3,5,4Z" transform="translate(-3.55 -3.5)"/><path class="cls-1" d="M16.56,15.16,14.75,13l-4.19-1.17L12,10.58l2.41.7-.25-2.5,1.44-1.2L16,11.91l1.82,2.18Z" transform="translate(-3.55 -3.5)"/><path class="cls-1" d="M18.41,13.29l.08-7.08,1.2-.55,5.39,4.6-1.53.7-1-1L19.9,11.19l0,1.41ZM19.8,7.53l.07,2.26,1.6-.73L19.82,7.53Z" transform="translate(-3.55 -3.5)"/><path class="cls-1" d="M30.69,10.11a3.82,3.82,0,0,1-1.82-.44A2.82,2.82,0,0,1,27.72,8.5a3.65,3.65,0,0,1-.38-1.76A3.66,3.66,0,0,1,27.78,5,2.77,2.77,0,0,1,29,3.88,3.64,3.64,0,0,1,30.8,3.5,3.92,3.92,0,0,1,32,3.71a2.9,2.9,0,0,1,.94.53l-.52,1.31a3.13,3.13,0,0,0-.79-.44A2.59,2.59,0,0,0,30.84,5a1.64,1.64,0,0,0-1.28.46,2,2,0,0,0-.45,1.36,2,2,0,0,0,.41,1.39,1.61,1.61,0,0,0,1.26.5,2.56,2.56,0,0,0,.82-.13,3.14,3.14,0,0,0,.81-.42l.48,1.33a2.89,2.89,0,0,1-1,.5A4,4,0,0,1,30.69,10.11Z" transform="translate(-3.55 -3.5)"/><path class="cls-1" d="M36,11a3.32,3.32,0,0,1-1.5-.9,2.88,2.88,0,0,1-.74-1.45,3.43,3.43,0,0,1,.13-1.78,3.6,3.6,0,0,1,.9-1.54,2.88,2.88,0,0,1,1.44-.76,3.75,3.75,0,0,1,3.26,1,2.85,2.85,0,0,1,.74,1.44,3.44,3.44,0,0,1-.13,1.78,3.63,3.63,0,0,1-.91,1.54,3,3,0,0,1-1.44.76A3.32,3.32,0,0,1,36,11Zm.42-1.33a1.37,1.37,0,0,0,1.22-.15,2.24,2.24,0,0,0,.8-1.22,2.17,2.17,0,0,0,0-1.46,1.5,1.5,0,0,0-2.13-.67,2.2,2.2,0,0,0-.81,1.22,2.23,2.23,0,0,0,0,1.46A1.38,1.38,0,0,0,36.4,9.68Z" transform="translate(-3.55 -3.5)"/><path class="cls-1" d="M39.56,12.31,43.18,7l3.7,2.52-.73,1.07L43.83,9l-.73,1.07,2.15,1.47-.72,1.06-2.15-1.47-1.44,2.1Z" transform="translate(-3.55 -3.5)"/><path class="cls-1" d="M43.54,15.14l4.77-4.28,3,3.33-1,.86L48.47,13l-1,.86,1.73,1.94-1,.85-1.74-1.94-1.9,1.7Z" transform="translate(-3.55 -3.5)"/><path class="cls-1" d="M46.73,18.83l5.7-3,2.09,4-1.15.59L52,17.88l-1.08.57,1.25,2.41-1.15.6L49.79,19l-1.17.61L50,22.25l-1.15.6Z" transform="translate(-3.55 -3.5)"/><path class="cls-1" d="M49,23.48l6.26-1.4,1,4.43L55,26.79l-.64-2.86-1.19.26.59,2.66-1.26.28-.59-2.66-1.29.29.64,2.86L50,27.9Z" transform="translate(-3.55 -3.5)"/><path class="cls-1" d="M50.1,31l6.33,1-.71,4.47-1.28-.2.47-2.9-1.21-.19-.43,2.69L52,35.67,52.42,33l-1.3-.21-.46,2.9-1.28-.21Z" transform="translate(-3.55 -3.5)"/><path class="cls-1" d="M49.29,36.09l5.76,2.82L53.88,41.3a3.7,3.7,0,0,1-1.88,2,3.51,3.51,0,0,1-4.26-2.08,3.69,3.69,0,0,1,.38-2.69Zm.48,2.1-.38.78a2,2,0,0,0-.21,1.48,2.35,2.35,0,0,0,2.51,1.22,2,2,0,0,0,1-1.07l.39-.78Z" transform="translate(-3.55 -3.5)"/><path class="cls-1" d="M46,42l5,4.07L49.9,47.39l-5-4.07Z" transform="translate(-3.55 -3.5)"/><path class="cls-1" d="M43.28,45l1.8,2.2,4.17,1.21L47.76,49.6l-2.41-.72.22,2.51-1.44,1.18-.35-4.33L42,46Z" transform="translate(-3.55 -3.5)"/><path class="cls-1" d="M41.42,46.83l-.16,7.08-1.21.53-5.34-4.65,1.54-.68,1,1,2.62-1.16,0-1.41ZM40,52.57l0-2.26L38.3,51l1.64,1.55Z" transform="translate(-3.55 -3.5)"/><path class="cls-1" d="M29.08,49.89a3.8,3.8,0,0,1,1.82.44,2.76,2.76,0,0,1,1.15,1.17,3.64,3.64,0,0,1,.38,1.75A3.56,3.56,0,0,1,32,55a2.74,2.74,0,0,1-1.18,1.13A3.81,3.81,0,0,1,29,56.5a3.86,3.86,0,0,1-1.22-.21,2.85,2.85,0,0,1-.95-.53l.52-1.31a3.48,3.48,0,0,0,.79.44,2.59,2.59,0,0,0,.82.16,1.66,1.66,0,0,0,1.28-.46,2.44,2.44,0,0,0,.05-2.75,1.64,1.64,0,0,0-1.27-.5,2.56,2.56,0,0,0-.82.13,3.14,3.14,0,0,0-.81.42l-.48-1.33a2.85,2.85,0,0,1,1-.5A3.85,3.85,0,0,1,29.08,49.89Z" transform="translate(-3.55 -3.5)"/><path class="cls-1" d="M23.82,48.92a3.46,3.46,0,0,1,1.49.92A2.88,2.88,0,0,1,26,51.3a3.45,3.45,0,0,1-.15,1.78A3.55,3.55,0,0,1,25,54.61a2.85,2.85,0,0,1-1.44.74,3.75,3.75,0,0,1-3.25-1.06,2.9,2.9,0,0,1-.73-1.45,3.46,3.46,0,0,1,.15-1.78,3.66,3.66,0,0,1,.93-1.53,3,3,0,0,1,1.44-.75A3.48,3.48,0,0,1,23.82,48.92Zm-.44,1.33a1.37,1.37,0,0,0-1.22.14,2.63,2.63,0,0,0-.87,2.66,1.5,1.5,0,0,0,2.13.7,2.22,2.22,0,0,0,.81-1.21,2.18,2.18,0,0,0,.06-1.46A1.36,1.36,0,0,0,23.38,50.25Z" transform="translate(-3.55 -3.5)"/><path class="cls-1" d="M20.25,47.59l-3.67,5.26-3.67-2.56.74-1.06,2.3,1.6.74-1.06-2.14-1.49.74-1.05,2.13,1.49,1.46-2.09Z" transform="translate(-3.55 -3.5)"/><path class="cls-1" d="M16.31,44.72,11.48,49l-3-3.36,1-.86,1.85,2.11,1-.85-1.71-2,1-.84,1.72,2,1.92-1.68Z" transform="translate(-3.55 -3.5)"/><path class="cls-1" d="M13.15,41,7.42,43.9l-2-4,1.15-.58,1.32,2.61,1.09-.55L7.71,38.91l1.15-.59,1.23,2.43,1.18-.6L10,37.54,11.1,37Z" transform="translate(-3.55 -3.5)"/><path class="cls-1" d="M10.89,36.32,4.61,37.64l-.93-4.43,1.26-.27.6,2.87,1.2-.25-.56-2.67,1.26-.26L8,35.29,9.29,35l-.6-2.87L10,31.88Z" transform="translate(-3.55 -3.5)"/></svg>