<?xml version="1.0" encoding="utf-8"?>
<!-- Generator: Adobe Illustrator 25.3.1, SVG Export Plug-In . SVG Version: 6.00 Build 0)  -->
<svg version="1.1" id="Layer_1" xmlns="http://www.w3.org/2000/svg" xmlns:xlink="http://www.w3.org/1999/xlink" x="0px" y="0px"
	 viewBox="0 0 85.84 8.42" style="enable-background:new 0 0 85.84 8.42;" xml:space="preserve">
<style type="text/css">
	.st0{fill:#DADADA;}
	.st1{fill:#1D245A;}
	.st2{fill:#FFFFFF;}
</style>
<g>
	<path class="st0" d="M56.26-104.85c0-13.73-11.13-24.87-24.87-24.87c-13.73,0-24.87,11.13-24.87,24.87s11.13,24.87,24.87,24.87
		C45.12-79.99,56.26-91.12,56.26-104.85z M31.39-88.9c-8.81,0-15.95-7.14-15.95-15.95c0-8.81,7.14-15.96,15.95-15.96
		c8.81,0,15.96,7.14,15.96,15.96C47.35-96.04,40.2-88.9,31.39-88.9z"/>
	<path class="st0" d="M31.39-89.76c8.33,0,15.09-6.76,15.09-15.09c0-8.34-6.76-15.09-15.09-15.09s-15.09,6.75-15.09,15.09
		C16.3-96.52,23.06-89.76,31.39-89.76z"/>
	<g>
		<path class="st0" d="M32.56-131.56l-0.89,1.39l1.67,0.07L32.56-131.56z M56.07-110.52l1.17-1.17l-1.6-0.44L56.07-110.52z
			 M54.96-114.12l0.98-1.33l-1.65-0.2L54.96-114.12z M55.58-112.34l1.08-1.26l-1.63-0.32L55.58-112.34z M54.2-115.85l0.88-1.4
			l-1.66-0.07L54.2-115.85z M52.31-119.11l0.66-1.52l-1.65,0.17L52.31-119.11z M53.32-117.52l0.77-1.46l-1.66,0.05L53.32-117.52z
			 M56.65-103.02l1.46-0.78l-1.4-0.89L56.65-103.02z M56.71-104.91l1.4-0.88l-1.46-0.79L56.71-104.91z M56.64-106.8l1.34-0.98
			l-1.52-0.67L56.64-106.8z M56.43-108.67l1.26-1.08l-1.56-0.56L56.43-108.67z M40.39-130.03l-1.27,1.07l1.57,0.56L40.39-130.03z
			 M51.19-120.63l0.55-1.56l-1.63,0.29L51.19-120.63z M42.24-129.29l-1.34,0.97l1.52,0.68L42.24-129.29z M36.54-131.09l-1.09,1.24
			l1.63,0.32L36.54-131.09z M38.49-130.63l-1.18,1.16l1.61,0.44L38.49-130.63z M44.03-128.41l-1.41,0.87l1.47,0.79L44.03-128.41z
			 M34.56-131.4l-1,1.32l1.66,0.2L34.56-131.4z M49.96-122.06l0.43-1.6l-1.61,0.41L49.96-122.06z M48.63-123.4l0.31-1.62l-1.57,0.53
			L48.63-123.4z M47.39-126.27l-1.52,0.65l1.33,1L47.39-126.27z M45.75-127.41l-1.47,0.76l1.41,0.9L45.75-127.41z M56.09-99.26
			l1.56-0.55l-1.25-1.09L56.09-99.26z M43.9-81.21l0.07-1.65l-1.47,0.78L43.9-81.21z M40.25-79.61l0.31-1.63l-1.57,0.55L40.25-79.61
			z M42.1-80.34l0.19-1.65l-1.53,0.67L42.1-80.34z M44.15-82.98l1.47,0.77l-0.06-1.65L44.15-82.98z M45.75-83.99l1.52,0.66
			l-0.18-1.65L45.75-83.99z M38.35-79.02l0.43-1.6l-1.61,0.43L38.35-79.02z M32.45-78.13l0.78-1.46l-1.66,0.07L32.45-78.13z
			 M36.4-78.58l0.55-1.56l-1.64,0.31L36.4-78.58z M47.26-85.12l1.57,0.54l-0.3-1.63L47.26-85.12z M34.43-78.28l0.67-1.52l-1.66,0.19
			L34.43-78.28z M55.6-97.43l1.6-0.43l-1.16-1.18L55.6-97.43z M54.99-95.64l1.63-0.31l-1.07-1.26L54.99-95.64z M54.24-93.91
			l1.64-0.19l-0.97-1.34L54.24-93.91z M48.68-86.35l1.6,0.42l-0.42-1.6L48.68-86.35z M56.44-101.13l1.51-0.67l-1.33-0.99
			L56.44-101.13z M53.36-92.24l1.65-0.06l-0.87-1.41L53.36-92.24z M51.24-89.12l1.65,0.18l-0.65-1.52L51.24-89.12z M50.01-87.69
			l1.63,0.31l-0.54-1.57L50.01-87.69z M52.36-90.64l1.65,0.06l-0.76-1.47L52.36-90.64z"/>
		<path class="st0" d="M20.64-129.34l-0.19,1.65l1.53-0.67L20.64-129.34z M18.85-128.47l-0.06,1.66l1.47-0.78L18.85-128.47z
			 M17.01-125.69l-1.52-0.66l0.18,1.65L17.01-125.69z M18.6-126.7l-1.47-0.77l0.06,1.66L18.6-126.7z M22.49-130.07l-0.31,1.63
			l1.57-0.56L22.49-130.07z M6.13-106.64l-1.46,0.78l1.4,0.89L6.13-106.64z M30.29-131.56l-0.78,1.46l1.67-0.07L30.29-131.56z
			 M15.49-124.56l-1.57-0.54l0.3,1.63L15.49-124.56z M26.34-131.11l-0.55,1.56l1.64-0.31L26.34-131.11z M24.4-130.66l-0.43,1.6
			l1.61-0.44L24.4-130.66z M14.07-123.32l-1.6-0.42l0.42,1.6L14.07-123.32z M7.17-112.24l-1.6,0.43l1.17,1.18L7.17-112.24z
			 M7.78-114.02l-1.63,0.31l1.08,1.26L7.78-114.02z M6.68-110.4l-1.56,0.55l1.25,1.09L6.68-110.4z M6.34-108.53l-1.52,0.67
			l1.33,0.99L6.34-108.53z M8.53-115.75l-1.64,0.19l0.98,1.34L8.53-115.75z M12.74-121.98l-1.63-0.3l0.54,1.57L12.74-121.98z
			 M11.52-120.54l-1.65-0.18l0.66,1.52L11.52-120.54z M10.4-119.02l-1.65-0.06l0.76,1.47L10.4-119.02z M9.41-117.42l-1.65,0.07
			l0.87,1.41L9.41-117.42z M28.31-131.41l-0.67,1.52l1.66-0.19L28.31-131.41z M14.19-86.27l-0.31,1.63l1.57-0.54L14.19-86.27z
			 M9.49-92.14l-0.77,1.47l1.66-0.05L9.49-92.14z M10.49-90.55l-0.66,1.52l1.65-0.18L10.49-90.55z M8.6-93.81l-0.88,1.4l1.66,0.07
			L8.6-93.81z M12.85-87.6L12.42-86l1.6-0.42L12.85-87.6z M11.62-89.03l-0.55,1.56l1.63-0.29L11.62-89.03z M6.72-99.13l-1.17,1.17
			l1.6,0.44L6.72-99.13z M6.36-100.99L5.11-99.9l1.56,0.56L6.36-100.99z M6.15-102.86l-1.33,0.99l1.52,0.67L6.15-102.86z
			 M7.21-97.31l-1.08,1.26l1.63,0.32L7.21-97.31z M6.07-104.74l-1.4,0.88l1.46,0.78L6.07-104.74z M7.84-95.53L6.86-94.2L8.5-94
			L7.84-95.53z M26.29-78.6l1.09-1.25l-1.64-0.31L26.29-78.6z M24.33-79.05l1.18-1.16l-1.61-0.44L24.33-79.05z M28.27-78.29
			l0.99-1.32l-1.66-0.19L28.27-78.29z M15.43-83.4l1.53-0.65l-1.34-1L15.43-83.4z M30.27-78.13l0.9-1.4L29.5-79.6L30.27-78.13z
			 M20.58-80.39l1.34-0.97l-1.52-0.67L20.58-80.39z M18.79-81.26l1.41-0.87l-1.47-0.79L18.79-81.26z M17.07-82.26l1.47-0.76
			l-1.41-0.89L17.07-82.26z M22.43-79.65l1.26-1.07l-1.57-0.56L22.43-79.65z"/>
	</g>
	<path class="st1" d="M31.39-92.31c6.93,0,12.54-5.62,12.54-12.54c0-6.93-5.62-12.54-12.54-12.54s-12.54,5.62-12.54,12.54
		C18.85-97.92,24.46-92.31,31.39-92.31z"/>
	<g>
		<path class="st0" d="M38.42-114.09l-1.15,1.63c-0.71-0.19-1.06-0.72-0.74-1.41c0.12-0.32,0.23-0.63,0.14-0.99
			c-0.86,0.16-1.54,1.53-2.48,0.85c0.27-0.7,0.33-1.62,1.01-2.02c0.75-0.18,1.38,0.42,2.06,0.62
			C37.74-115.02,38.59-114.86,38.42-114.09z"/>
		<path class="st0" d="M41.57-111.38c0.02,1.04-1.24,0.97-1.84,1.48c-1.06-0.72,0.42-1.56,0.46-2.38l-0.15-0.1
			c-0.7,0.15-1.65,1.15-2.2,0.28c0.34-0.62,0.77-1.69,1.7-1.64C40.3-112.99,41.13-112.33,41.57-111.38z"/>
		<path class="st0" d="M33.59-114.2c-0.44-0.02-1.17-0.01-1.05-0.74c0.15-0.36-0.15-0.73-0.17-1.08l-0.26,0.07
			c-0.62,0.44-0.71,1.79-1.7,1.63c-0.18-0.93-0.44-2,0.32-2.62c1.12-0.15,2.18-0.02,3.21,0.29C34.71-115.88,33.69-115,33.59-114.2z"
			/>
		<path class="st0" d="M42.61-109.42c0.04,0.99,1.15,2.43-0.04,3.16l-1.61,0.25c-0.25-0.25-0.1-0.63-0.24-0.97
			c0.37-0.57,1.16-0.81,1.3-1.53c-0.63-0.14-1.76,0.48-1.89-0.42c-0.38-0.67,0.45-0.73,0.77-0.95
			C41.48-110.18,42.43-110.22,42.61-109.42z"/>
		<path class="st0" d="M29.75-114.23c-0.17,0.07-0.33,0.18-0.56,0.21c-0.47-0.39-0.79-0.96-1.27-1.28c-0.47,0.68,0.42,2.23-1.05,2.3
			c-0.41-0.63-1-1.19-0.95-2.01c0.56-1.14,1.98-1.42,3.11-1.64C29.96-116.2,29.62-115.04,29.75-114.23z"/>
		<path class="st0" d="M43.36-103.14c-0.16,0.62-0.14,1.42-0.8,1.79c-0.78,0.13-1.4-0.34-2.11-0.5c-0.16-0.4,0.15-0.83,0.21-1.25
			c0.66-0.14,1.23-0.41,1.84-0.61c-0.36-0.42-1.04-0.62-1.56-0.93c-0.05-0.24,0.12-0.46-0.01-0.73c0.71-0.08,1.79-0.67,2.34,0.14
			C43.4-104.59,43.4-103.81,43.36-103.14z"/>
		<path class="st0" d="M26.34-112.63c-0.65,0.9-1.58-0.3-2.41-0.27c-0.09,0.78,1.1,1.74,0.13,2.25c-0.68-0.53-1.54-0.97-1.52-1.92
			c0.81-0.74,1.56-2.26,2.74-1.77L26.34-112.63z"/>
		<path class="st0" d="M41.35-98.04c-0.22,0.43-0.77,0.67-1.2,0.51c-0.41-0.44-1.11-0.66-1.43-1.14c0.39-1.07,1.52-0.3,2.31-0.54
			c-0.22-0.54-0.77-0.86-1.11-1.3c0.11-0.26,0.14-0.54,0.35-0.77l1.86,0.7C42.82-99.7,41.61-98.89,41.35-98.04z"/>
		<path class="st0" d="M23.64-110.14c-0.3,1.43-1.53,0.27-2.34,0.59c0.09,0.78,1.73,1.18,0.79,2.11c-0.62-0.29-1.58-0.34-1.84-1.14
			c0.26-0.91,0.71-1.88,1.31-2.67C22.48-111.65,23.02-110.57,23.64-110.14z"/>
		<path class="st0" d="M39.77-96.43c-0.58,0.8-1.3,1.35-2.04,1.93c-1.11,0.27-1.05-1.07-1.54-1.66c-0.08-0.2,0.13-0.43,0.29-0.54
			c0.66-0.08,1.19,0.62,1.83,0.62c-0.07-0.59-0.88-1.56-0.09-2.08C38.9-97.68,39.83-97.26,39.77-96.43z"/>
		<path class="st0" d="M21.64-106.29c-0.53,0.35-1.23,0.46-1.73,0.89c0.51,0.37,1.2,0.42,1.77,0.94c0.05,0.33-0.1,0.71-0.46,0.7
			c-0.53,0.08-1.32,0.46-1.71-0.15c-0.25-1-0.06-2.03,0.06-3c0.14-0.36,0.48-0.56,0.81-0.55C20.8-107.08,22.31-107.18,21.64-106.29z
			"/>
		<path class="st0" d="M35.87-93.52c-1.05,0.28-2.43,1.1-3.34,0.23c-0.19-0.64-0.22-1.47-0.05-2.14c0.99-0.41,1.32,0.8,1.81,1.33
			l0.18-0.04c0.27-0.7,0.05-1.92,1.04-2.06C35.65-95.31,37.06-94.28,35.87-93.52z"/>
		<path class="st0" d="M21.93-102.29c-0.37,0.33-0.87,0.55-1.2,0.96c0.58,0.59,2.07-0.18,2.08,1.11c-0.63,0.23-1.14,1.06-1.92,0.64
			c-0.53-0.76-0.72-1.76-1.12-2.62c0.09-0.33,0.22-0.52,0.5-0.76l1.52-0.3C21.75-102.94,21.87-102.62,21.93-102.29z"/>
		<path class="st0" d="M31.42-93.01c-0.95,0.07-2.16,0.13-2.88-0.58c-0.19-0.73,0.38-1.32,0.58-2c0.93,0,0.73,1.2,1.14,1.67
			c0.69-0.36,0.59-1.51,1.45-1.44C31.84-94.63,32.06-93.62,31.42-93.01z"/>
		<path class="st0" d="M22.74-97.71c-0.04,0.25,0.2,0.16,0.32,0.21c0.64-0.01,1.52-0.91,2.02-0.01c-0.5,0.49-0.75,1.29-1.46,1.46
			c-0.79-0.54-1.43-1.41-2.06-2.15c-0.13-0.63,0.49-0.8,0.89-1.14c0.39-0.41,0.81-0.23,0.97,0.27L22.74-97.71z"/>
		<path class="st0" d="M28.48-95.66c-0.37,0.66-0.29,1.71-1.22,1.88l-0.43,0.02c-0.75-0.61-2.42-0.95-2.23-2.12l0.87-1.24l0.87,0.56
			c-0.07,0.53-0.4,1.07-0.19,1.53C26.95-95.15,27.6-96.35,28.48-95.66z"/>
	</g>
	<g>
		<path class="st0" d="M30.18-113.67c0.63-0.31,1.62-0.09,2.44-0.1l-1.47,0.37L30.18-113.67z"/>
		<path class="st0" d="M33.39-111.94c-1.66,0.97-3.53,0.8-5.42,1.44l-0.11-0.07c1.52-1.36,3.27-2.44,5.47-2.73
			C33.49-112.87,33.44-112.39,33.39-111.94z"/>
		<path class="st0" d="M30.33-113.01c-0.76,0.8-1.74,0.31-2.63,0.3C28.43-113.37,29.47-113.32,30.33-113.01z"/>
		<path class="st0" d="M34.21-108.76c1.25,0.87,2.27,1.81,3.04,3.45c0.15,0.45-0.05,0.69-0.41,0.73c-1.24,0.24-1.49,0.2-2.79,0.26
			c-0.1,1.05-0.14,3.3-0.14,3.3c-0.68,0.22-2.77-0.37-3.57-0.75c-0.14-0.06-0.46-0.27-0.61-0.13c-0.2,0.17-0.06,0.29,0.05,0.45
			c1.41,0.86,2.24,0.91,4.14,1.12c-0.25,2,0.05,2.16-0.12,4.18c-2.38,0.1-4.93-1.31-6.3-3.32c-1.65-1.91-1.87-4.71-1.9-7.16
			c0.14-1.09,0.79-2.32,1.59-3.09c1.58,0.82,3.3,1.16,4.85,2.16c0.18,0,0.33-0.09,0.4-0.25c-0.44-0.67,0.61-0.75,0.61-1.41
			c0.06-0.47,0.04-1.27-0.45-1.53l-0.11-0.07l0.82-0.25C33.47-110.35,33.06-109.21,34.21-108.76z"/>
		<path class="st0" d="M32.4-109.22c-0.23,0.49-0.71,0.59-1.16,0.48c-0.39-0.19-0.72-0.47-0.63-0.92c0.25-0.38,0.51-0.96,1.06-0.75
			C32.26-110.43,32.58-109.76,32.4-109.22z"/>
		<path class="st0" d="M28.64-111.94c-0.73,1.03-1.86,0.78-2.92,0.69l1.05-0.97C27.41-112.23,28-112.02,28.64-111.94z"/>
		<path class="st0" d="M30.07-109.14l-1.9-0.78l2.23-0.51C30.08-110.04,29.89-109.61,30.07-109.14z"/>
		<path class="st0" d="M27.01-110.46c-0.3,0.37-0.66,0.69-0.89,1.14l-2-0.13c0.1-0.48,0.69-0.88,1.04-1.28
			C25.78-110.6,26.42-110.61,27.01-110.46z"/>
		<path class="st0" d="M25.18-107.32l-2.33-0.07c0.16-0.62,0.57-1.1,0.95-1.55l1.89,0.2C25.56-108.31,25.34-107.79,25.18-107.32z"/>
		<path class="st0" d="M25.09-105.37c-0.92,0.03-1.8,0.22-2.71,0.04c-0.12-0.5,0.09-1.06,0.29-1.56c0.77,0.17,1.61,0.02,2.4,0.2
			L25.09-105.37z"/>
		<path class="st0" d="M25.29-103.28c-0.91,0.1-2.03,0.3-2.89,0.14l-0.1-1.51c0.91-0.01,1.93-0.16,2.85,0.05L25.29-103.28z"/>
		<path class="st0" d="M25.84-101.21l-2.56,0.14c-0.38-0.25-0.43-0.91-0.74-1.32c0.79-0.3,1.82-0.17,2.71-0.28
			C25.61-102.29,25.64-101.64,25.84-101.21z"/>
		<path class="st0" d="M26.79-99.57c-0.68,0.22-1.54,0.2-2.38,0.32c-0.55-0.27-0.66-0.82-0.98-1.27l2.64-0.18L26.79-99.57z"/>
		<path class="st0" d="M27.8-98.13c-1.01-0.11-2.3,0.76-2.98-0.55C25.82-98.82,27.66-99.61,27.8-98.13z"/>
		<path class="st0" d="M28.79-96.31c1.02-0.78,1.91,0.34,2.88,0.43C30.7-95.91,29.72-95.98,28.79-96.31z"/>
		<path class="st0" d="M29.15-97.01c-0.78,0.13-1.53,0.69-2.14-0.04l-0.59-0.39C27.31-97.45,28.59-98.22,29.15-97.01z"/>
		<path class="st0" d="M35.88-112.73c-0.37-0.19-0.76-0.37-1.15-0.52c-0.24-0.02-0.48-0.01-0.72,0.03c0,0.2,0.01,0.4,0.01,0.59
			C34.61-112.48,35.26-112.7,35.88-112.73z"/>
		<path class="st0" d="M38-111.26c-0.39-0.36-0.82-0.68-1.27-0.97c-0.61,0.04-1.81,0.16-2.76,0.27c-0.02,0.12-0.04,0.25-0.06,0.37
			c0.06,0.16,0.07,0.34,0.06,0.52C34.92-111,37.29-111.2,38-111.26z"/>
		<path class="st0" d="M38.52-110.73c-0.65,0.08-3.11,0.1-4.6,0.16c-0.06,0.46-0.09,0.91,0.32,1.21l5.23-0.11
			C39.21-109.92,38.88-110.34,38.52-110.73z"/>
		<path class="st0" d="M39.76-108.96l-4.65,0.16c0.59,0.42,1.12,0.89,1.59,1.43l3.62-0.04C40.19-107.95,40-108.47,39.76-108.96z"/>
		<path class="st0" d="M40.45-105.28l0.03-0.74c-0.01-0.28-0.03-0.56-0.07-0.83c-0.71,0.05-2.05,0.05-3.28,0.05
			c0.26,0.37,0.49,0.77,0.7,1.22c0.03,0.09,0.06,0.19,0.07,0.3C38.85-105.26,39.8-105.25,40.45-105.28z"/>
		<path class="st0" d="M37.48-104.26c-1.31,0.57-1.56,0.31-2.94,0.44c0.01,0.2,0.01,0.39,0.01,0.58c1.26,0.08,4.21,0.2,5.67,0.15
			c0.06-0.24,0.11-0.49,0.16-0.73l0.04-0.85c-0.63-0.01-1.56-0.03-2.53-0.04C37.84-104.49,37.72-104.31,37.48-104.26z"/>
		<path class="st0" d="M34.52-101.18l5.01,0.11c0.21-0.47,0.39-0.94,0.54-1.43c-1.43-0.12-4.3-0.08-5.51-0.14
			C34.55-102.12,34.54-101.64,34.52-101.18z"/>
		<path class="st0" d="M34.44-99.4c1.38,0.05,3.16,0.08,4.05,0.13c0.29-0.39,0.55-0.81,0.77-1.25l-4.76-0.13
			C34.47-100.23,34.45-99.82,34.44-99.4z"/>
		<path class="st0" d="M34.5-98.75c-0.03,0.01-0.06,0.03-0.09,0.05c0,0.24-0.01,0.48,0,0.73c0.76,0.02,1.95,0.2,2.88,0.04
			c0.27-0.25,0.53-0.51,0.77-0.8C37.02-98.84,35.05-99,34.5-98.75z"/>
		<path class="st0" d="M34.43-97.22c0,0.14,0.01,0.28,0.02,0.43c0.29,0.06,0.57,0.14,0.84,0.17c0.5-0.22,0.97-0.49,1.41-0.82
			C35.94-97.52,35-97.84,34.43-97.22z"/>
	</g>
	<g>
		<path class="st1" d="M37.64-114.06c-0.05,0.17-0.16,0.11-0.29,0.11c-0.12-0.05-0.11-0.16-0.14-0.24
			C37.28-114.54,37.86-114.31,37.64-114.06z"/>
		<path class="st1" d="M39.53-112.77c-0.05,0.12-0.15,0.18-0.27,0.19c-0.11-0.07-0.22-0.17-0.16-0.31c0.04-0.15,0.22-0.19,0.31-0.16
			C39.44-112.95,39.63-112.88,39.53-112.77z"/>
		<path class="st1" d="M35.73-115.15c-0.07,0.2-0.22,0.25-0.38,0.17c0-0.09-0.09-0.18-0.05-0.24
			C35.34-115.53,35.78-115.42,35.73-115.15z"/>
		<path class="st1" d="M40.9-111.22c-0.14,0.12-0.42,0.14-0.46-0.09c-0.04-0.17,0.21-0.32,0.34-0.29
			C40.93-111.5,40.94-111.37,40.9-111.22z"/>
		<path class="st1" d="M33.44-115.71c-0.07,0.11-0.14,0.18-0.27,0.19c-0.13-0.08-0.27-0.14-0.25-0.31
			C33.04-116.03,33.45-116,33.44-115.71z"/>
		<path class="st1" d="M31.38-116.11c-0.1,0.15-0.22,0.16-0.37,0.11c-0.08-0.02-0.07-0.13-0.08-0.2
			C30.96-116.57,31.41-116.34,31.38-116.11z"/>
		<path class="st1" d="M41.76-109.21c-0.07,0.2-0.22,0.25-0.38,0.17c-0.08-0.05-0.13-0.17-0.07-0.26c0.09-0.09,0.13-0.25,0.27-0.19
			C41.68-109.41,41.75-109.34,41.76-109.21z"/>
		<path class="st1" d="M42.18-107.08c-0.06,0.14-0.19,0.3-0.35,0.22c-0.02-0.1-0.1-0.22-0.12-0.28c0.06-0.14,0.21-0.19,0.33-0.15
			C42.15-107.27,42.14-107.16,42.18-107.08z"/>
		<path class="st1" d="M28.87-115.58c-0.1,0.02-0.16,0.11-0.29,0.12c-0.2-0.07-0.13-0.17-0.12-0.28
			C28.58-116.01,29.04-115.83,28.87-115.58z"/>
		<path class="st1" d="M42.75-104.59c-0.06,0.23-0.24,0.14-0.38,0.12c-0.16-0.13-0.12-0.47,0.16-0.47
			C42.66-104.86,42.83-104.75,42.75-104.59z"/>
		<path class="st1" d="M27.02-114.62c-0.14,0.03-0.31,0.1-0.39-0.04c-0.01-0.13,0.09-0.42,0.26-0.31
			C27.1-114.93,27.04-114.76,27.02-114.62z"/>
		<path class="st1" d="M42.31-102.26l-0.12,0.19c-0.2,0.02-0.44-0.2-0.26-0.38C41.99-102.64,42.49-102.57,42.31-102.26z"/>
		<path class="st1" d="M24.98-113.48c-0.1,0.15-0.22,0.16-0.38,0.12c-0.08-0.02-0.07-0.13-0.08-0.2
			C24.64-113.79,24.99-113.77,24.98-113.48z"/>
		<path class="st1" d="M31.06-107.29c-0.04,0.15-0.28,0.15-0.38,0.12c-0.02-0.11-0.23-0.21-0.07-0.31c0.04-0.15,0.19-0.2,0.31-0.16
			C31.09-107.61,31.1-107.39,31.06-107.29z"/>
		<path class="st1" d="M23.52-112.11c-0.1,0.02-0.18,0.18-0.29,0.08c-0.06-0.04-0.23-0.12-0.12-0.23
			C23.16-112.53,23.61-112.44,23.52-112.11z"/>
		<path class="st1" d="M31.34-106.6l-0.32-0.21c0.01-0.2,0.23-0.45,0.43-0.29C31.59-106.95,31.54-106.68,31.34-106.6z"/>
		<path class="st1" d="M30.31-107.48c-0.1,0.2-0.44,0.07-0.5-0.11c-0.08-0.2,0.2-0.21,0.28-0.33
			C30.29-107.86,30.37-107.66,30.31-107.48z"/>
		<path class="st1" d="M41.69-99.74c-0.14,0.18-0.26,0.04-0.41-0.06c-0.12-0.14,0.05-0.39,0.24-0.36
			C41.7-100.13,41.72-99.88,41.69-99.74z"/>
		<path class="st1" d="M31.82-106.14c-0.04,0.15-0.19,0.21-0.31,0.16c-0.15-0.04-0.15-0.28-0.12-0.38
			C31.51-106.64,31.98-106.39,31.82-106.14z"/>
		<path class="st1" d="M29.47-107.61c-0.05,0.17-0.22,0.16-0.36,0.22c-0.26-0.14-0.15-0.46,0.07-0.56
			C29.37-107.92,29.44-107.81,29.47-107.61z"/>
		<path class="st1" d="M31.85-105.4c-0.11,0.2-0.42,0.33-0.53,0.02c-0.01-0.13,0.09-0.37,0.3-0.32
			C31.73-105.63,31.87-105.57,31.85-105.4z"/>
		<path class="st1" d="M28.56-107.33c-0.04,0.16-0.28,0.15-0.38,0.12c-0.09-0.06-0.06-0.19-0.09-0.27
			C28.15-107.81,28.84-107.72,28.56-107.33z"/>
		<path class="st1" d="M27.88-106.99c-0.04,0.15-0.19,0.21-0.31,0.16c-0.11-0.01-0.1-0.12-0.14-0.21
			C27.51-107.44,28.04-107.27,27.88-106.99z"/>
		<path class="st1" d="M22.16-110.26l-0.34,0.05c-0.13-0.17,0.05-0.45,0.26-0.4C22.17-110.46,22.18-110.43,22.16-110.26z"/>
		<path class="st1" d="M40.57-98.25c-0.08,0.13-0.19,0.3-0.35,0.22c-0.23-0.15-0.18-0.42,0.02-0.5
			C40.36-98.53,40.61-98.46,40.57-98.25z"/>
		<path class="st1" d="M27.36-106.36c-0.04,0.15-0.2,0.08-0.33,0.14c-0.19-0.12-0.21-0.41,0.04-0.48
			C27.23-106.72,27.46-106.57,27.36-106.36z"/>
		<path class="st1" d="M31.2-103.75c-0.13,0.07-0.23,0.21-0.36,0.13c-0.14-0.06-0.29-0.19-0.22-0.35
			C30.78-104.23,31.44-104.13,31.2-103.75z"/>
		<path class="st1" d="M31.61-104.54c-0.13,0.07-0.23,0.21-0.36,0.13c-0.14-0.06-0.3-0.19-0.22-0.35
			C31.2-105.02,31.86-104.92,31.61-104.54z"/>
		<path class="st1" d="M26.85-105.49c-0.14-0.12-0.45-0.14-0.26-0.38C26.82-106.27,27.28-105.69,26.85-105.49z"/>
		<path class="st1" d="M30.65-103.23c-0.07,0.25-0.28,0.21-0.46,0.15c-0.12-0.23,0.06-0.5,0.3-0.47
			C30.64-103.5,30.7-103.35,30.65-103.23z"/>
		<path class="st1" d="M26.87-104.97c-0.04,0.15-0.2,0.17-0.31,0.25c-0.11-0.07-0.18-0.15-0.18-0.27
			C26.41-105.32,26.92-105.27,26.87-104.97z"/>
		<path class="st1" d="M21.22-108.49c-0.05,0.12-0.14,0.18-0.27,0.19c-0.15-0.1-0.16-0.22-0.12-0.38
			C20.96-108.87,21.3-108.65,21.22-108.49z"/>
		<path class="st1" d="M29.86-102.81c-0.05,0.12-0.12,0.19-0.25,0.2c-0.13-0.08-0.28-0.12-0.26-0.29
			C29.45-103.29,29.96-103.1,29.86-102.81z"/>
		<path class="st1" d="M39.21-96.61c-0.06,0.14-0.22,0.19-0.34,0.14c-0.15-0.13-0.02-0.38,0.15-0.42
			C39.09-96.8,39.3-96.76,39.21-96.61z"/>
		<path class="st1" d="M29.08-102.72c-0.07,0.11-0.11,0.26-0.28,0.24c-0.13-0.08-0.2-0.19-0.22-0.35
			C28.66-103.23,29.25-103.03,29.08-102.72z"/>
		<path class="st1" d="M27.05-104.13c-0.03,0.19-0.12,0.28-0.34,0.29c-0.15-0.04-0.16-0.26-0.12-0.38l0.19-0.15L27.05-104.13z"/>
		<path class="st1" d="M28.23-102.7c-0.1,0.02-0.16,0.11-0.29,0.08c-0.19-0.03-0.2-0.25-0.17-0.38
			C27.95-103.33,28.45-103,28.23-102.7z"/>
		<path class="st1" d="M27.43-103.37c-0.07,0.11-0.13,0.25-0.3,0.23c-0.27-0.09-0.15-0.28-0.1-0.49
			C27.19-103.74,27.44-103.57,27.43-103.37z"/>
		<path class="st1" d="M20.54-106.56c-0.13,0.06-0.21,0.37-0.4,0.19c-0.11-0.19-0.03-0.47,0.21-0.46
			C20.46-106.76,20.53-106.69,20.54-106.56z"/>
		<path class="st1" d="M37.68-95.28c-0.03,0.1-0.15,0.18-0.27,0.18c-0.14-0.06-0.19-0.21-0.14-0.33
			C37.35-95.65,37.72-95.53,37.68-95.28z"/>
		<path class="st1" d="M20.38-104.19c-0.05,0.17-0.16,0.11-0.27,0.09c-0.15-0.13-0.12-0.41,0.11-0.41
			C20.33-104.44,20.57-104.34,20.38-104.19z"/>
		<path class="st1" d="M35.58-94.25c-0.08-0.02-0.13,0.06-0.16,0.11c-0.15,0.05-0.3-0.14-0.24-0.28
			C35.28-94.77,35.72-94.51,35.58-94.25z"/>
		<path class="st1" d="M20.83-102.25c-0.05,0.12-0.12,0.19-0.25,0.2c-0.12-0.05-0.17-0.15-0.19-0.27
			C20.44-102.62,20.88-102.51,20.83-102.25z"/>
		<path class="st1" d="M33.35-93.74c-0.1-0.03-0.31,0.07-0.32-0.15c-0.02-0.2,0.21-0.32,0.37-0.24
			C33.51-94.03,33.47-93.84,33.35-93.74z"/>
		<path class="st1" d="M21.55-100.34c-0.01,0.11-0.14,0.12-0.24,0.14l-0.19-0.12l0.21-0.32C21.42-100.57,21.56-100.5,21.55-100.34z"
			/>
		<path class="st1" d="M31.3-93.78c-0.08,0.07-0.14,0.3-0.27,0.18c-0.15-0.04-0.2-0.19-0.16-0.31
			C30.95-94.13,31.34-94.02,31.3-93.78z"/>
		<path class="st1" d="M22.56-98.39c-0.03,0.13-0.14,0.12-0.24,0.14c-0.11-0.1-0.28-0.36,0-0.42
			C22.48-98.72,22.63-98.53,22.56-98.39z"/>
		<path class="st1" d="M29.5-94.02c-0.05,0.12-0.15,0.18-0.27,0.19c-0.12-0.05-0.19-0.12-0.2-0.25
			C29.1-94.37,29.52-94.28,29.5-94.02z"/>
		<path class="st1" d="M23.96-96.97c-0.01,0.11-0.16,0.11-0.24,0.14c-0.11-0.07-0.18-0.14-0.18-0.27
			C23.58-97.4,24.12-97.26,23.96-96.97z"/>
		<path class="st1" d="M27.29-94.65c-0.06,0.08-0.14,0.21-0.24,0.14c-0.11-0.07-0.18-0.14-0.19-0.27
			C26.98-95.01,27.38-94.93,27.29-94.65z"/>
		<path class="st1" d="M25.6-95.6c-0.1,0.11-0.36,0.28-0.44-0.02c-0.02-0.1,0.1-0.29,0.26-0.25C25.53-95.83,25.59-95.73,25.6-95.6z"
			/>
	</g>
	<path class="st1" d="M16.95-104.85c0,7.97,6.48,14.45,14.44,14.45c7.97,0,14.45-6.48,14.45-14.45s-6.48-14.45-14.45-14.45
		C23.43-119.3,16.95-112.82,16.95-104.85z M17.99-104.85c0-7.39,6.01-13.4,13.4-13.4c7.39,0,13.4,6.01,13.4,13.4
		c0,7.39-6.01,13.4-13.4,13.4C24-91.45,17.99-97.46,17.99-104.85z"/>
	<g>
		<g>
			<path class="st1" d="M44-86.14l-2.72-4.1l-1.41,0.94c0,0-0.29,0.16-0.17,0.34c0.11,0.16,0.32,0.06,0.32,0.06s0.09-0.04,0.19,0.12
				l1.97,2.97c0,0,0.09,0.18-0.03,0.35c0,0-0.14,0.17-0.06,0.29c0.12,0.17,0.3,0.08,0.38,0.03L44-86.14z"/>
			<path class="st1" d="M43.44-90.27l-0.64-0.97l-1.27,0.85l0.19,0.28c0,0,0.38-0.23,0.82-0.14c0.45,0.09,0.72,0.25,0.72,0.25
				s0.13,0.11,0.23-0.02C43.57-90.1,43.44-90.27,43.44-90.27z"/>
			<path class="st1" d="M44.88-88.11l0.64,0.97l-1.27,0.85l-0.19-0.28c0,0,0.36-0.26,0.45-0.71c0.09-0.44,0.05-0.77,0.05-0.77
				s-0.05-0.16,0.11-0.21C44.78-88.29,44.88-88.11,44.88-88.11z"/>
			<path class="st1" d="M42.73-88.59c0,0,0.2-0.33,0.09-0.75c-0.12-0.42,0.19-0.35,0.24-0.27l0.93,1.4c0.05,0.07,0,0.39-0.34,0.11
				c-0.35-0.27-0.73-0.21-0.73-0.21L42.73-88.59z"/>
		</g>
		<g>
			<path class="st1" d="M23.12-84.25c0,0-0.39-0.14-0.24-0.53l1.23-3.12c0.15-0.39,0.54-0.23,0.54-0.23l0.14-0.35
				c0,0-2.06-0.89-2.99,1.47c-0.93,2.36,1.19,3.11,1.19,3.11L23.12-84.25z"/>
			<path class="st1" d="M23.39-84.14c0,0,0.38,0.16,0.54-0.23l1.23-3.12c0.15-0.39-0.24-0.53-0.24-0.53l0.13-0.35
				c0,0,2.12,0.75,1.19,3.11c-0.93,2.36-2.99,1.47-2.99,1.47L23.39-84.14z"/>
		</g>
		<g>
			<path class="st1" d="M18.44-86.81c0,0-0.35-0.24-0.1-0.58l1.97-2.71c0.25-0.34,0.58-0.08,0.58-0.08l0.22-0.3
				c0,0-1.78-1.39-3.27,0.65c-1.49,2.05,0.38,3.32,0.38,3.32L18.44-86.81z"/>
			<path class="st1" d="M21.38-88.22c0.4-1.08-0.26-1.79-0.26-1.79l0.22-0.3c0,0,0.27,0.2,0.47,0.58c0,0,0.16,0.38,0.35,0.3
				c0.12-0.05,0.25-0.1,0.35-0.04c0.09,0.07,0.1,0.2,0.05,0.27c-0.06,0.08-0.89,1.23-0.89,1.23s-0.12,0.16-0.26,0.05
				C21.28-88.02,21.38-88.22,21.38-88.22z"/>
			<path class="st1" d="M20.38-86.29c-1.06,0.59-1.93-0.05-1.93-0.05l0.22-0.3c0,0,0.72,0.47,1.51,0.04c0,0,0.21-0.13,0.31,0.05
				C20.57-86.41,20.38-86.29,20.38-86.29z"/>
		</g>
		<g>
			<path class="st1" d="M28.5-82.47c0.09,0.01,0.3,0.02,0.34-0.19c0.02-0.15-0.18-0.24-0.18-0.24c-0.19-0.1-0.18-0.3-0.18-0.3
				l0.59-4.15l-1.69-0.24c0,0-0.32-0.08-0.36,0.15c-0.03,0.19,0.2,0.26,0.2,0.26s0.09,0.03,0.06,0.22l-0.5,3.53
				c0,0-0.05,0.19-0.26,0.24c0,0-0.22,0.04-0.24,0.19c-0.03,0.21,0.18,0.26,0.27,0.27L28.5-82.47z"/>
			<path class="st1" d="M30.7-85.94l0.16-1.15l-1.52-0.21l-0.05,0.34c0,0,0.44,0.08,0.71,0.44c0.27,0.36,0.37,0.67,0.37,0.67
				s0.02,0.16,0.19,0.14C30.69-85.74,30.7-85.94,30.7-85.94z"/>
			<path class="st1" d="M29.05-85.16c0,0,0.37-0.11,0.57-0.51c0.19-0.4,0.37-0.13,0.36-0.05l-0.23,1.66
				c-0.01,0.08-0.26,0.29-0.33-0.14c-0.08-0.44-0.4-0.64-0.4-0.64L29.05-85.16z"/>
		</g>
		<g>
			<path class="st1" d="M33.94-82.43c0.09-0.01,0.3-0.06,0.28-0.26c-0.01-0.15-0.23-0.19-0.23-0.19c-0.21-0.05-0.25-0.25-0.25-0.25
				l-0.42-4.17l-1.7,0.17c0,0-0.33,0-0.31,0.23c0.02,0.19,0.26,0.2,0.26,0.2s0.09,0.01,0.12,0.2l0.36,3.54c0,0,0,0.2-0.19,0.29
				c0,0-0.2,0.09-0.19,0.24c0.02,0.21,0.23,0.21,0.33,0.2L33.94-82.43z"/>
			<path class="st1" d="M35.25-86.33l-0.12-1.16l-1.52,0.15L33.64-87c0,0,0.45-0.03,0.8,0.26c0.35,0.29,0.52,0.56,0.52,0.56
				s0.06,0.15,0.22,0.09C35.29-86.12,35.25-86.33,35.25-86.33z"/>
			<path class="st1" d="M33.83-85.18c0,0,0.33-0.2,0.43-0.63c0.09-0.43,0.33-0.22,0.34-0.13l0.17,1.67
				c0.01,0.09-0.18,0.34-0.36-0.06c-0.18-0.4-0.54-0.53-0.54-0.53L33.83-85.18z"/>
		</g>
		<g>
			<path class="st1" d="M39.16-83.66l-1.67-4.62l-1.6,0.57c0,0-0.32,0.08-0.24,0.29c0.06,0.18,0.3,0.13,0.3,0.13
				s0.09-0.02,0.16,0.17l1.21,3.35c0,0,0.05,0.19-0.11,0.33c0,0-0.18,0.13-0.12,0.27c0.07,0.2,0.28,0.15,0.37,0.12L39.16-83.66z"/>
			<path class="st1" d="M39.6-87.81l-0.39-1.09l-1.44,0.52l0.12,0.32c0,0,0.43-0.13,0.83,0.06c0.41,0.2,0.64,0.42,0.64,0.42
				s0.1,0.13,0.23,0.04C39.69-87.62,39.6-87.81,39.6-87.81z"/>
			<path class="st1" d="M40.48-85.37l0.39,1.09l-1.44,0.52l-0.12-0.32c0,0,0.42-0.17,0.61-0.58c0.19-0.41,0.23-0.73,0.23-0.73
				s-0.01-0.17,0.16-0.18C40.42-85.57,40.48-85.37,40.48-85.37z"/>
			<path class="st1" d="M38.51-86.35c0,0,0.28-0.27,0.26-0.71c-0.01-0.44,0.27-0.29,0.3-0.21l0.57,1.58
				c0.03,0.08-0.09,0.38-0.36,0.03c-0.27-0.35-0.66-0.38-0.66-0.38L38.51-86.35z"/>
		</g>
	</g>
	<g>
		<path class="st1" d="M16.46-114.2c0.05-0.09,0.13-0.29-0.06-0.4c-0.14-0.08-0.3,0.08-0.3,0.08c-0.17,0.14-0.36,0.06-0.36,0.06
			l-3.28-1.79c-0.18-0.1-0.15-0.19-0.15-0.19s0.08-0.24-0.09-0.33c-0.21-0.11-0.34,0.21-0.34,0.21l-0.86,1.57
			c0,0-0.19,0.29,0.01,0.4c0.17,0.1,0.33-0.1,0.33-0.1s0.06-0.08,0.24,0.02l3.28,1.79c0,0,0.17,0.12,0.14,0.34
			c0,0-0.04,0.23,0.09,0.3c0.19,0.11,0.32-0.07,0.37-0.16L16.46-114.2z"/>
		<g>
			<path class="st1" d="M14.48-109.61l-4.96-1.44l-0.5,1.71c0,0-0.13,0.32,0.1,0.39c0.19,0.06,0.3-0.17,0.3-0.17
				s0.04-0.09,0.24-0.03l3.59,1.05c0,0,0.19,0.08,0.21,0.3c0,0,0,0.23,0.16,0.28c0.21,0.06,0.3-0.14,0.33-0.24L14.48-109.61z"/>
			<path class="st1" d="M14.19-110.01c0,0,0.13-0.42-0.29-0.54l-3.38-0.99c-0.42-0.12-0.53,0.3-0.53,0.3l-0.38-0.11
				c0,0,0.58-2.3,3.14-1.55c2.56,0.74,1.82,3,1.82,3L14.19-110.01z"/>
		</g>
		<g>
			<path class="st1" d="M44.11-117.01l3.7-3.6l-1.24-1.28c0,0-0.22-0.27-0.39-0.11c-0.14,0.14,0,0.34,0,0.34s0.06,0.08-0.09,0.22
				l-2.68,2.61c0,0-0.17,0.13-0.37,0.03c0,0-0.2-0.11-0.31,0c-0.16,0.15-0.02,0.33,0.04,0.4L44.11-117.01z"/>
			<path class="st1" d="M48.27-118.38l0.88-0.85l-1.12-1.15l-0.26,0.25c0,0,0.31,0.35,0.3,0.82c-0.01,0.48-0.12,0.8-0.12,0.8
				s-0.08,0.15,0.07,0.24C48.12-118.22,48.27-118.38,48.27-118.38z"/>
			<path class="st1" d="M46.32-116.49l-0.88,0.85l-1.12-1.15l0.26-0.25c0,0,0.34,0.32,0.81,0.33c0.48,0,0.8-0.1,0.8-0.1
				s0.15-0.08,0.24,0.07C46.49-116.63,46.32-116.49,46.32-116.49z"/>
			<path class="st1" d="M46.4-118.79c0,0,0.38,0.15,0.79-0.06c0.42-0.2,0.39,0.13,0.33,0.19l-1.26,1.23
				c-0.06,0.06-0.4,0.08-0.18-0.33c0.22-0.41,0.08-0.79,0.08-0.79L46.4-118.79z"/>
		</g>
		<g>
			<path class="st1" d="M27.23-121.95l-1.27-5l-1.73,0.44c0,0-0.34,0.05-0.29,0.28c0.05,0.19,0.3,0.17,0.3,0.17s0.1-0.01,0.15,0.19
				l0.92,3.62c0,0,0.03,0.21-0.15,0.34c0,0-0.2,0.12-0.16,0.27c0.05,0.21,0.27,0.19,0.37,0.16L27.23-121.95z"/>
			<path class="st1" d="M28.11-126.24l-0.3-1.18l-1.56,0.4l0.09,0.35c0,0,0.46-0.1,0.87,0.15c0.41,0.25,0.63,0.5,0.63,0.5
				s0.09,0.15,0.24,0.06C28.18-126.03,28.11-126.24,28.11-126.24z"/>
			<path class="st1" d="M28.78-123.61l0.3,1.18l-1.56,0.4l-0.09-0.35c0,0,0.45-0.13,0.69-0.54c0.24-0.41,0.31-0.74,0.31-0.74
				s0.01-0.17,0.18-0.17C28.74-123.83,28.78-123.61,28.78-123.61z"/>
			<path class="st1" d="M26.82-124.82c0,0,0.32-0.25,0.35-0.72c0.03-0.46,0.31-0.28,0.33-0.19l0.43,1.71
				c0.02,0.09-0.13,0.38-0.38-0.01c-0.25-0.39-0.65-0.46-0.65-0.46L26.82-124.82z"/>
		</g>
		<g>
			<path class="st1" d="M49.34-105.4c0,0-0.02-0.44,0.42-0.45l3.52-0.07c0.44-0.01,0.44,0.43,0.44,0.43l0.39-0.01
				c0,0,0.03-2.36-2.63-2.3c-2.66,0.06-2.53,2.41-2.53,2.41L49.34-105.4z"/>
			<path class="st1" d="M49.35-105.09c0,0,0,0.44,0.44,0.43l3.52-0.07c0.44-0.01,0.42-0.45,0.42-0.45l0.39-0.01
				c0,0,0.13,2.35-2.53,2.41c-2.66,0.06-2.63-2.3-2.63-2.3L49.35-105.09z"/>
		</g>
		<g>
			<path class="st1" d="M36.03-121.82c0.1,0.03,0.32,0.06,0.37-0.15c0.04-0.15-0.15-0.28-0.15-0.28c-0.18-0.13-0.15-0.34-0.15-0.34
				l1.18-4.24l-1.73-0.48c0,0-0.33-0.12-0.39,0.1c-0.05,0.19,0.18,0.29,0.18,0.29s0.09,0.04,0.04,0.24l-1,3.6c0,0-0.08,0.2-0.3,0.22
				c0,0-0.23,0.01-0.27,0.16c-0.06,0.21,0.15,0.3,0.24,0.32L36.03-121.82z"/>
			<path class="st1" d="M37.44-123.67l-0.67-0.18l0.1-0.38c0,0,0.42,0.13,0.54-0.3l0.36-1.31c0.12-0.42-0.31-0.53-0.31-0.53
				l0.1-0.38l0.66,0.18c0,0,1.64,0.33,1.21,1.89C39.01-123.12,37.44-123.67,37.44-123.67z"/>
		</g>
		<g>
			<path class="st1" d="M33.03-125.98c-0.32-1.17-1.31-1.24-1.31-1.24l0-0.39c0,0,0.36,0,0.76,0.21c0,0,0.36,0.23,0.48,0.05
				c0.08-0.12,0.15-0.24,0.27-0.24c0.12,0,0.21,0.11,0.21,0.2c0,0.11-0.02,1.46-0.02,1.46s0,0.21-0.19,0.2
				C33.07-125.74,33.03-125.98,33.03-125.98z"/>
			<path class="st1" d="M30.08-123.9c0.39,1.14,1.29,1.06,1.29,1.06l0,0.39c0,0-0.38,0.02-0.77-0.19c0,0-0.25-0.15-0.42-0.02
				c-0.11,0.08-0.2,0.2-0.32,0.2c-0.12,0-0.21-0.11-0.21-0.2c0-0.11,0.01-1.32,0.01-1.32s0-0.16,0.2-0.16
				C30.03-124.14,30.08-123.9,30.08-123.9z"/>
			<path class="st1" d="M31.67-122.84c0.2-0.02,0.37-0.07,0.59-0.2c0.24-0.14,0.36-0.33,0.37-0.58c-0.01-0.34-0.27-0.57-0.8-0.7
				l-0.58-0.13c-0.22-0.05-0.43-0.1-0.6-0.16c-0.24-0.08-0.45-0.19-0.62-0.33c-0.16-0.13-0.29-0.3-0.37-0.49
				c-0.08-0.19-0.12-0.39-0.11-0.6c0-0.46,0.17-0.85,0.51-1.15c0.33-0.29,0.85-0.43,1.37-0.44l0,0l0,0l0,0.4
				c-0.28,0-0.6,0.06-0.79,0.18c-0.18,0.12-0.27,0.27-0.27,0.46c0,0.16,0.07,0.27,0.2,0.33c0.14,0.06,0.31,0.11,0.51,0.15l0.61,0.12
				c0.55,0.12,0.95,0.32,1.23,0.55c0.37,0.29,0.76,0.77,0.76,1.28c0,0.21-0.02,0.4-0.09,0.58c-0.14,0.36-0.41,0.64-0.75,0.84
				c-0.34,0.2-0.79,0.29-1.17,0.29L31.67-122.84z"/>
		</g>
		<g>
			<path class="st1" d="M52.11-109.17c1.03-0.63,0.83-1.6,0.83-1.6l0.38-0.11c0,0,0.1,0.34,0.01,0.79c0,0-0.12,0.41,0.09,0.47
				c0.13,0.04,0.28,0.08,0.31,0.2c0.03,0.12-0.04,0.23-0.13,0.25c-0.1,0.03-1.41,0.39-1.41,0.39s-0.2,0.06-0.25-0.13
				C51.89-109.06,52.11-109.17,52.11-109.17z"/>
			<path class="st1" d="M49.3-111.42c-0.99,0.7-0.66,1.53-0.66,1.53l-0.38,0.11c0,0-0.12-0.36-0.03-0.8c0,0,0.08-0.28-0.1-0.41
				c-0.11-0.09-0.25-0.14-0.28-0.25c-0.03-0.12,0.04-0.23,0.13-0.25c0.1-0.03,1.27-0.35,1.27-0.35s0.15-0.04,0.21,0.15
				C49.52-111.53,49.3-111.42,49.3-111.42z"/>
			<path class="st1" d="M48.73-109.6c0.07,0.19,0.17,0.34,0.35,0.51c0.2,0.19,0.42,0.25,0.66,0.19c0.32-0.1,0.47-0.42,0.45-0.97
				l-0.03-0.6c-0.02-0.23-0.02-0.44-0.02-0.62c0.01-0.26,0.05-0.49,0.14-0.68c0.08-0.2,0.21-0.36,0.36-0.49
				c0.16-0.13,0.34-0.22,0.54-0.27c0.45-0.13,0.87-0.07,1.25,0.17c0.37,0.23,0.65,0.69,0.8,1.19l0,0l0,0l-0.39,0.11
				c-0.08-0.27-0.23-0.56-0.4-0.71c-0.16-0.14-0.33-0.18-0.51-0.13c-0.15,0.05-0.24,0.14-0.26,0.29c-0.02,0.15-0.02,0.33,0,0.53
				c0,0,0.06,0.62,0.06,0.62c0.04,0.57-0.05,1-0.18,1.34c-0.18,0.43-0.53,0.95-1.01,1.08c-0.2,0.06-0.39,0.09-0.59,0.07
				c-0.39-0.04-0.73-0.21-1.01-0.48c-0.29-0.27-0.5-0.68-0.6-1.04L48.73-109.6z"/>
		</g>
		<g>
			<path class="st1" d="M50.52-113.94c0.86-0.86,0.42-1.75,0.42-1.75l0.34-0.19c0,0,0.17,0.31,0.2,0.77c0,0-0.02,0.43,0.2,0.44
				c0.14,0.01,0.29,0.01,0.35,0.12c0.06,0.11,0.01,0.23-0.07,0.28c-0.09,0.05-1.27,0.71-1.27,0.71s-0.18,0.1-0.27-0.06
				C50.33-113.79,50.52-113.94,50.52-113.94z"/>
			<path class="st1" d="M47.25-115.46c-0.8,0.91-0.28,1.65-0.28,1.65l-0.34,0.19c0,0-0.21-0.32-0.22-0.77c0,0,0.01-0.29-0.19-0.38
				c-0.13-0.06-0.27-0.07-0.33-0.18c-0.06-0.11-0.01-0.23,0.07-0.28c0.09-0.05,1.15-0.65,1.15-0.65s0.14-0.08,0.24,0.1
				C47.43-115.63,47.25-115.46,47.25-115.46z"/>
			<path class="st1" d="M47.12-113.56c0.12,0.17,0.24,0.29,0.47,0.41c0.24,0.14,0.46,0.15,0.69,0.03c0.29-0.17,0.36-0.52,0.21-1.05
				l-0.17-0.57c-0.07-0.22-0.13-0.42-0.16-0.6c-0.06-0.25-0.06-0.49-0.03-0.7c0.03-0.21,0.11-0.4,0.24-0.56
				c0.12-0.16,0.28-0.3,0.46-0.4c0.4-0.23,0.82-0.28,1.25-0.13c0.41,0.14,0.8,0.52,1.06,0.97l0,0l0,0l-0.35,0.2
				c-0.14-0.24-0.35-0.49-0.55-0.59c-0.19-0.1-0.37-0.1-0.53-0.01c-0.14,0.08-0.2,0.19-0.19,0.34c0.01,0.15,0.06,0.32,0.13,0.51
				l0.2,0.59c0.17,0.54,0.19,0.99,0.14,1.34c-0.07,0.46-0.29,1.05-0.73,1.29c-0.18,0.1-0.36,0.18-0.55,0.21
				c-0.38,0.06-0.76-0.03-1.1-0.23c-0.34-0.19-0.65-0.54-0.83-0.87L47.12-113.56z"/>
		</g>
		<g>
			<path class="st1" d="M40.06-120.17c0.09,0.05,0.29,0.14,0.4-0.05c0.08-0.14-0.08-0.31-0.08-0.31c-0.14-0.17-0.06-0.37-0.06-0.37
				l2.19-3.82l-1.55-0.89c0,0-0.29-0.2-0.4,0c-0.1,0.17,0.1,0.33,0.1,0.33s0.08,0.06-0.02,0.24l-1.86,3.24c0,0-0.12,0.17-0.35,0.13
				c0,0-0.22-0.05-0.3,0.09c-0.11,0.19,0.07,0.32,0.16,0.37L40.06-120.17z"/>
			<path class="st1" d="M42.41-119.59c-0.02,0.21,0.05,0.28,0.05,0.28s0.12,0.11,0.02,0.29c-0.12,0.21-0.47-0.03-0.47-0.03l-1-0.58
				c0,0-0.31-0.14-0.2-0.35c0.09-0.15,0.33-0.08,0.33-0.08s0.17,0.04,0.2-0.14c0,0,0.03-1.52,0.03-1.62c0-0.1-0.09-0.15-0.09-0.15
				l0.2-0.34c0,0,0.37,0.23,0.59-0.15l0.67-1.18c0.22-0.38-0.16-0.59-0.16-0.59l0.2-0.34l0.6,0.34c0,0,1.51,0.72,0.7,2.13
				c-0.53,0.93-1.32,0.83-1.79,0.67c0,0,0.15,0.05,0.15,0.37L42.41-119.59z"/>
		</g>
		<g>
			<path class="st1" d="M18.61-116.95c0.06-0.08,0.18-0.26,0.01-0.4c-0.12-0.1-0.31,0.02-0.31,0.02c-0.19,0.11-0.37-0.01-0.37-0.01
				l-0.93-0.77l-2.78-0.6c-0.17-0.05-0.11-0.22-0.11-0.22s0.11-0.23-0.03-0.34c-0.18-0.15-0.38,0.13-0.38,0.13l-1.14,1.37
				c0,0-0.24,0.24-0.06,0.39c0.14,0.11,0.3,0.01,0.3,0.01s0.07-0.04,0.27,0.02l2.78,0.6l0.93,0.77c0,0,0.15,0.15,0.08,0.36
				c0,0-0.09,0.21,0.03,0.31c0.17,0.14,0.33-0.01,0.39-0.09L18.61-116.95z"/>
			<path class="st1" d="M15.23-120.97l-0.33,0.39c0,0-0.24,0.24-0.06,0.39c0.14,0.11,0.34-0.04,0.34-0.04s0.15-0.1,0.23,0.06
				l0.59,1.55l0.54,0.12l-0.81-2.06c-0.09-0.19-0.07-0.26-0.07-0.26s0.07-0.18-0.07-0.29C15.43-121.25,15.23-120.97,15.23-120.97z"
				/>
		</g>
		<g>
			<g>
				<path class="st1" d="M19.01-119.79l0.85-0.63l-2.59-1.93l-0.11-0.31l1.28-0.95l3.68,2.74c0,0,0.14,0.15,0.36,0.09
					c0,0,0.22-0.08,0.31,0.05c0.13,0.18-0.03,0.33-0.11,0.39l-1.64,1.22c-0.08,0.06-0.27,0.17-0.4-0.01
					c-0.09-0.13,0.04-0.31,0.04-0.31c0.2-0.24,0.01-0.37,0.01-0.37l-0.49-0.36l-0.95,0.71L19.01-119.79z"/>
			</g>
			<path class="st1" d="M19.47-118.54c-0.28,0.12-0.35-0.09-0.35-0.09l-1.02-2.77l-0.66-0.49l1.3,3.54c0,0,0.11,0.18-0.01,0.37
				c0,0-0.13,0.19-0.04,0.31c0.13,0.18,0.32,0.07,0.4,0.01l0.59-0.44c0.08-0.06,0.24-0.21,0.11-0.39
				C19.69-118.62,19.47-118.54,19.47-118.54z"/>
		</g>
		<g>
			<path class="st1" d="M13.83-105.06H8.66v1.78c0,0-0.03,0.35,0.2,0.35c0.2,0,0.24-0.25,0.24-0.25s0.02-0.1,0.22-0.1h3.74
				c0,0,0.21,0.02,0.29,0.23c0,0,0.07,0.22,0.23,0.22c0.22,0,0.25-0.22,0.25-0.32V-105.06z"/>
			<path class="st1" d="M9.88-106.97H8.66v1.61h0.36c0,0,0.02-0.47,0.36-0.8c0.34-0.33,0.64-0.48,0.64-0.48s0.17-0.05,0.12-0.22
				C10.1-106.99,9.88-106.97,9.88-106.97z"/>
			<path class="st1" d="M12.61-106.97h1.22v1.61h-0.36c0,0-0.02-0.47-0.36-0.8c-0.34-0.33-0.64-0.48-0.64-0.48s-0.17-0.05-0.12-0.22
				C12.39-106.99,12.61-106.97,12.61-106.97z"/>
			<path class="st1" d="M10.94-105.38c0,0-0.17-0.37-0.61-0.51c-0.44-0.15-0.19-0.37-0.1-0.37h1.76c0.09,0,0.34,0.22-0.1,0.37
				c-0.44,0.14-0.61,0.51-0.61,0.51H10.94z"/>
		</g>
	</g>
</g>
<path class="st0" d="M141.56-94.05c0-13.73-11.13-24.87-24.87-24.87c-13.73,0-24.87,11.13-24.87,24.87s11.13,24.87,24.87,24.87
	C130.42-69.18,141.56-80.32,141.56-94.05z M116.69-78.1c-8.81,0-15.95-7.14-15.95-15.95c0-8.81,7.14-15.96,15.95-15.96
	c8.81,0,15.96,7.14,15.96,15.96C132.65-85.24,125.5-78.1,116.69-78.1z"/>
<path class="st0" d="M116.69-78.96c8.33,0,15.09-6.76,15.09-15.09c0-8.34-6.76-15.09-15.09-15.09s-15.09,6.75-15.09,15.09
	C101.6-85.72,108.36-78.96,116.69-78.96z"/>
<g>
	<path class="st0" d="M117.86-120.76l-0.89,1.39l1.67,0.07L117.86-120.76z M141.37-99.72l1.17-1.17l-1.6-0.44L141.37-99.72z
		 M140.26-103.32l0.98-1.33l-1.65-0.2L140.26-103.32z M140.88-101.54l1.08-1.26l-1.63-0.32L140.88-101.54z M139.5-105.05l0.88-1.4
		l-1.66-0.07L139.5-105.05z M137.61-108.31l0.66-1.52l-1.65,0.17L137.61-108.31z M138.62-106.72l0.77-1.46l-1.66,0.05L138.62-106.72
		z M141.94-92.22l1.46-0.78l-1.4-0.89L141.94-92.22z M142.01-94.11l1.4-0.88l-1.46-0.79L142.01-94.11z M141.93-95.99l1.33-0.98
		l-1.52-0.67L141.93-95.99z M141.72-97.87l1.26-1.08l-1.56-0.56L141.72-97.87z M125.69-119.23l-1.27,1.07l1.57,0.56L125.69-119.23z
		 M136.49-109.83l0.55-1.56l-1.63,0.29L136.49-109.83z M127.54-118.49l-1.34,0.97l1.52,0.68L127.54-118.49z M121.83-120.29
		l-1.09,1.24l1.63,0.32L121.83-120.29z M123.79-119.83l-1.18,1.16l1.61,0.44L123.79-119.83z M129.33-117.61l-1.41,0.87l1.47,0.79
		L129.33-117.61z M119.85-120.6l-1,1.32l1.66,0.2L119.85-120.6z M135.26-111.26l0.43-1.6l-1.61,0.41L135.26-111.26z M133.93-112.6
		l0.31-1.62l-1.57,0.53L133.93-112.6z M132.69-115.47l-1.52,0.65l1.33,1L132.69-115.47z M131.05-116.61l-1.47,0.76l1.41,0.9
		L131.05-116.61z M141.39-88.46l1.56-0.55l-1.25-1.09L141.39-88.46z M129.2-70.41l0.07-1.65l-1.47,0.78L129.2-70.41z M125.55-68.81
		l0.31-1.63l-1.57,0.55L125.55-68.81z M127.4-69.54l0.19-1.65l-1.53,0.67L127.4-69.54z M129.45-72.17l1.47,0.77l-0.06-1.65
		L129.45-72.17z M131.04-73.18l1.52,0.66l-0.18-1.65L131.04-73.18z M123.65-68.22l0.43-1.6l-1.61,0.43L123.65-68.22z M117.75-67.33
		l0.78-1.46l-1.66,0.07L117.75-67.33z M121.7-67.78l0.55-1.56l-1.64,0.31L121.7-67.78z M132.56-74.31l1.57,0.54l-0.3-1.63
		L132.56-74.31z M119.73-67.48L120.4-69l-1.66,0.19L119.73-67.48z M140.9-86.62l1.6-0.43l-1.16-1.18L140.9-86.62z M140.28-84.84
		l1.63-0.31l-1.07-1.26L140.28-84.84z M139.53-83.11l1.64-0.19l-0.97-1.34L139.53-83.11z M133.98-75.55l1.6,0.42l-0.42-1.6
		L133.98-75.55z M141.74-90.33l1.51-0.67l-1.33-0.99L141.74-90.33z M138.65-81.44l1.65-0.06l-0.87-1.41L138.65-81.44z M136.54-78.32
		l1.65,0.18l-0.65-1.52L136.54-78.32z M135.31-76.89l1.63,0.31l-0.54-1.57L135.31-76.89z M137.65-79.84l1.65,0.06l-0.76-1.47
		L137.65-79.84z"/>
	<path class="st0" d="M105.94-118.54l-0.19,1.65l1.53-0.67L105.94-118.54z M104.15-117.67l-0.06,1.66l1.47-0.78L104.15-117.67z
		 M102.3-114.89l-1.52-0.66l0.18,1.65L102.3-114.89z M103.89-115.9l-1.47-0.77l0.06,1.66L103.89-115.9z M107.79-119.27l-0.31,1.63
		l1.57-0.56L107.79-119.27z M91.43-95.84l-1.46,0.78l1.4,0.89L91.43-95.84z M115.59-120.76l-0.78,1.46l1.67-0.07L115.59-120.76z
		 M100.79-113.76l-1.57-0.54l0.3,1.63L100.79-113.76z M111.64-120.31l-0.55,1.56l1.64-0.31L111.64-120.31z M109.7-119.86l-0.43,1.6
		l1.61-0.44L109.7-119.86z M99.37-112.52l-1.6-0.42l0.42,1.6L99.37-112.52z M92.46-101.43l-1.6,0.43l1.17,1.18L92.46-101.43z
		 M93.08-103.22l-1.63,0.31l1.08,1.26L93.08-103.22z M91.98-99.6l-1.56,0.55l1.25,1.09L91.98-99.6z M91.64-97.73l-1.52,0.67
		l1.33,0.99L91.64-97.73z M93.83-104.95l-1.64,0.19l0.98,1.34L93.83-104.95z M98.04-111.18l-1.63-0.3l0.54,1.57L98.04-111.18z
		 M96.82-109.74l-1.65-0.18l0.66,1.52L96.82-109.74z M95.7-108.22l-1.65-0.06l0.76,1.47L95.7-108.22z M94.7-106.62l-1.65,0.07
		l0.87,1.41L94.7-106.62z M113.61-120.61l-0.67,1.52l1.66-0.19L113.61-120.61z M99.48-75.47l-0.31,1.63l1.57-0.54L99.48-75.47z
		 M94.78-81.34l-0.77,1.47l1.66-0.05L94.78-81.34z M95.79-79.75l-0.66,1.52l1.65-0.18L95.79-79.75z M93.9-83.01l-0.88,1.4l1.66,0.07
		L93.9-83.01z M98.15-76.8l-0.43,1.6l1.6-0.42L98.15-76.8z M96.92-78.23l-0.54,1.56L98-76.96L96.92-78.23z M92.02-88.33l-1.17,1.17
		l1.6,0.44L92.02-88.33z M91.66-90.18l-1.25,1.08l1.56,0.56L91.66-90.18z M91.44-92.06l-1.33,0.99l1.52,0.67L91.44-92.06z
		 M92.51-86.51l-1.08,1.26l1.63,0.32L92.51-86.51z M91.37-93.94l-1.4,0.88l1.46,0.78L91.37-93.94z M93.14-84.73l-0.98,1.33
		l1.64,0.19L93.14-84.73z M111.59-67.8l1.09-1.25l-1.64-0.31L111.59-67.8z M109.63-68.25l1.18-1.16l-1.61-0.44L109.63-68.25z
		 M113.57-67.49l0.99-1.32l-1.66-0.19L113.57-67.49z M100.73-72.59l1.53-0.65l-1.34-1L100.73-72.59z M115.57-67.33l0.9-1.4
		l-1.67-0.07L115.57-67.33z M105.88-69.59l1.34-0.97l-1.52-0.67L105.88-69.59z M104.09-70.46l1.41-0.87l-1.47-0.79L104.09-70.46z
		 M102.37-71.46l1.47-0.76l-1.41-0.89L102.37-71.46z M107.73-68.85l1.26-1.07l-1.57-0.56L107.73-68.85z"/>
</g>
<path class="st1" d="M116.69-81.51c6.93,0,12.54-5.62,12.54-12.54c0-6.93-5.62-12.54-12.54-12.54c-6.93,0-12.54,5.62-12.54,12.54
	C104.14-87.12,109.76-81.51,116.69-81.51z"/>
<g>
	<path class="st0" d="M123.72-103.29l-1.15,1.63c-0.71-0.19-1.06-0.72-0.74-1.41c0.12-0.32,0.23-0.63,0.14-0.99
		c-0.86,0.16-1.54,1.53-2.48,0.85c0.27-0.7,0.33-1.62,1.01-2.02c0.75-0.18,1.38,0.42,2.06,0.62
		C123.03-104.22,123.89-104.05,123.72-103.29z"/>
	<path class="st0" d="M126.87-100.58c0.02,1.04-1.24,0.97-1.84,1.48c-1.06-0.72,0.42-1.56,0.46-2.38l-0.15-0.1
		c-0.7,0.15-1.65,1.15-2.2,0.28c0.34-0.62,0.77-1.69,1.7-1.64C125.6-102.19,126.43-101.53,126.87-100.58z"/>
	<path class="st0" d="M118.89-103.4c-0.44-0.02-1.17-0.01-1.05-0.74c0.15-0.36-0.15-0.73-0.17-1.08l-0.26,0.07
		c-0.62,0.44-0.71,1.79-1.7,1.63c-0.18-0.93-0.44-2,0.32-2.62c1.12-0.15,2.18-0.02,3.21,0.29
		C120.01-105.07,118.99-104.2,118.89-103.4z"/>
	<path class="st0" d="M127.9-98.61c0.04,0.99,1.15,2.43-0.04,3.16l-1.61,0.25c-0.25-0.25-0.1-0.63-0.24-0.97
		c0.37-0.57,1.16-0.81,1.3-1.53c-0.63-0.14-1.76,0.48-1.89-0.42c-0.38-0.67,0.45-0.73,0.77-0.95
		C126.78-99.38,127.73-99.42,127.9-98.61z"/>
	<path class="st0" d="M115.05-103.42c-0.17,0.07-0.33,0.18-0.56,0.21c-0.47-0.39-0.79-0.96-1.27-1.28c-0.47,0.68,0.42,2.23-1.05,2.3
		c-0.41-0.63-1-1.19-0.95-2.01c0.56-1.14,1.98-1.42,3.11-1.64C115.25-105.4,114.92-104.23,115.05-103.42z"/>
	<path class="st0" d="M128.66-92.34c-0.16,0.62-0.14,1.41-0.8,1.79c-0.78,0.13-1.4-0.34-2.11-0.5c-0.16-0.4,0.15-0.83,0.21-1.25
		c0.66-0.14,1.23-0.41,1.84-0.61c-0.36-0.42-1.04-0.62-1.56-0.93c-0.05-0.24,0.12-0.46-0.01-0.73c0.71-0.08,1.79-0.67,2.34,0.14
		C128.7-93.79,128.7-93,128.66-92.34z"/>
	<path class="st0" d="M111.64-101.83c-0.65,0.9-1.58-0.3-2.41-0.27c-0.09,0.78,1.1,1.74,0.13,2.25c-0.68-0.53-1.54-0.97-1.52-1.92
		c0.81-0.74,1.56-2.26,2.74-1.77L111.64-101.83z"/>
	<path class="st0" d="M126.65-87.24c-0.22,0.43-0.77,0.67-1.2,0.51c-0.41-0.44-1.11-0.66-1.43-1.14c0.39-1.07,1.52-0.3,2.31-0.54
		c-0.22-0.54-0.77-0.86-1.11-1.3c0.11-0.26,0.14-0.54,0.35-0.77l1.86,0.7C128.12-88.9,126.91-88.09,126.65-87.24z"/>
	<path class="st0" d="M108.93-99.34c-0.3,1.43-1.53,0.27-2.34,0.59c0.09,0.78,1.73,1.18,0.79,2.11c-0.62-0.29-1.58-0.34-1.84-1.14
		c0.26-0.91,0.71-1.88,1.31-2.67C107.78-100.85,108.31-99.77,108.93-99.34z"/>
	<path class="st0" d="M125.07-85.63c-0.58,0.8-1.3,1.35-2.04,1.93c-1.11,0.27-1.05-1.07-1.54-1.66c-0.08-0.2,0.13-0.43,0.29-0.54
		c0.66-0.08,1.19,0.62,1.83,0.62c-0.07-0.59-0.88-1.56-0.09-2.08C124.2-86.88,125.13-86.46,125.07-85.63z"/>
	<path class="st0" d="M106.94-95.49c-0.53,0.35-1.23,0.46-1.73,0.89c0.51,0.37,1.2,0.42,1.77,0.94c0.05,0.33-0.1,0.71-0.46,0.7
		c-0.53,0.08-1.32,0.46-1.71-0.15c-0.25-1-0.06-2.03,0.06-3c0.14-0.36,0.48-0.56,0.81-0.55C106.1-96.28,107.61-96.38,106.94-95.49z"
		/>
	<path class="st0" d="M121.17-82.71c-1.05,0.28-2.43,1.1-3.34,0.23c-0.19-0.64-0.22-1.47-0.05-2.14c0.99-0.41,1.32,0.8,1.81,1.33
		l0.18-0.04c0.27-0.7,0.05-1.92,1.04-2.06C120.95-84.51,122.36-83.48,121.17-82.71z"/>
	<path class="st0" d="M107.22-91.48c-0.37,0.33-0.87,0.55-1.2,0.96c0.58,0.59,2.07-0.18,2.08,1.11c-0.63,0.23-1.14,1.06-1.92,0.64
		c-0.53-0.76-0.72-1.76-1.12-2.62c0.09-0.33,0.22-0.52,0.5-0.76l1.52-0.3C107.05-92.14,107.17-91.82,107.22-91.48z"/>
	<path class="st0" d="M116.72-82.21c-0.95,0.07-2.16,0.13-2.88-0.58c-0.19-0.73,0.38-1.32,0.58-2c0.93,0,0.73,1.2,1.14,1.67
		c0.69-0.36,0.59-1.51,1.45-1.44C117.14-83.83,117.35-82.82,116.72-82.21z"/>
	<path class="st0" d="M108.04-86.91c-0.04,0.25,0.2,0.16,0.32,0.21c0.64-0.01,1.52-0.91,2.02-0.01c-0.5,0.49-0.75,1.29-1.46,1.46
		c-0.79-0.54-1.43-1.41-2.06-2.15c-0.13-0.63,0.49-0.8,0.89-1.14c0.39-0.41,0.81-0.23,0.97,0.27L108.04-86.91z"/>
	<path class="st0" d="M113.78-84.86c-0.37,0.66-0.29,1.71-1.22,1.88l-0.43,0.02c-0.75-0.61-2.42-0.95-2.23-2.12l0.87-1.24l0.87,0.56
		c-0.07,0.53-0.4,1.07-0.19,1.53C112.24-84.35,112.9-85.55,113.78-84.86z"/>
</g>
<g>
	<path class="st0" d="M115.48-102.87c0.63-0.31,1.62-0.09,2.44-0.1l-1.47,0.37L115.48-102.87z"/>
	<path class="st0" d="M118.69-101.14c-1.66,0.97-3.53,0.8-5.42,1.44l-0.11-0.07c1.52-1.36,3.27-2.44,5.47-2.73
		C118.79-102.07,118.74-101.59,118.69-101.14z"/>
	<path class="st0" d="M115.62-102.2c-0.76,0.8-1.74,0.31-2.63,0.3C113.72-102.57,114.77-102.52,115.62-102.2z"/>
	<path class="st0" d="M119.51-97.96c1.25,0.87,2.27,1.81,3.04,3.45c0.15,0.45-0.05,0.69-0.41,0.73c-1.24,0.24-1.49,0.2-2.79,0.26
		c-0.1,1.05-0.14,3.3-0.14,3.3c-0.68,0.22-2.77-0.37-3.57-0.75c-0.14-0.06-0.46-0.27-0.61-0.13c-0.2,0.17-0.06,0.3,0.05,0.45
		c1.41,0.86,2.24,0.91,4.14,1.12c-0.25,2,0.05,2.16-0.12,4.18c-2.38,0.1-4.93-1.31-6.3-3.32c-1.65-1.91-1.87-4.71-1.9-7.16
		c0.14-1.09,0.79-2.32,1.59-3.09c1.58,0.82,3.3,1.16,4.85,2.16c0.18,0,0.33-0.09,0.4-0.25c-0.44-0.67,0.61-0.75,0.61-1.41
		c0.06-0.47,0.04-1.27-0.45-1.53L117.8-100l0.82-0.25C118.77-99.55,118.36-98.41,119.51-97.96z"/>
	<path class="st0" d="M117.7-98.42c-0.23,0.49-0.71,0.59-1.16,0.48c-0.39-0.19-0.72-0.47-0.63-0.92c0.25-0.38,0.51-0.96,1.06-0.75
		C117.55-99.62,117.88-98.96,117.7-98.42z"/>
	<path class="st0" d="M113.93-101.14c-0.73,1.03-1.86,0.78-2.92,0.69l1.05-0.97C112.71-101.42,113.3-101.22,113.93-101.14z"/>
	<path class="st0" d="M115.36-98.34l-1.9-0.78l2.23-0.51C115.38-99.23,115.19-98.81,115.36-98.34z"/>
	<path class="st0" d="M112.31-99.66c-0.3,0.37-0.66,0.69-0.89,1.14l-2-0.13c0.1-0.48,0.69-0.88,1.04-1.28
		C111.08-99.8,111.72-99.81,112.31-99.66z"/>
	<path class="st0" d="M110.48-96.52l-2.33-0.07c0.16-0.62,0.57-1.1,0.95-1.55l1.89,0.2C110.85-97.51,110.64-96.99,110.48-96.52z"/>
	<path class="st0" d="M110.38-94.57c-0.92,0.03-1.8,0.22-2.71,0.04c-0.12-0.5,0.09-1.06,0.29-1.56c0.77,0.17,1.61,0.02,2.4,0.2
		L110.38-94.57z"/>
	<path class="st0" d="M110.59-92.48c-0.91,0.1-2.03,0.3-2.89,0.14l-0.1-1.51c0.91-0.01,1.93-0.16,2.85,0.05L110.59-92.48z"/>
	<path class="st0" d="M111.14-90.41l-2.56,0.14c-0.38-0.25-0.43-0.91-0.74-1.32c0.79-0.3,1.82-0.17,2.71-0.28
		C110.91-91.49,110.94-90.84,111.14-90.41z"/>
	<path class="st0" d="M112.09-88.77c-0.68,0.22-1.54,0.2-2.38,0.32c-0.55-0.27-0.67-0.82-0.98-1.27l2.64-0.18L112.09-88.77z"/>
	<path class="st0" d="M113.1-87.32c-1.01-0.11-2.3,0.76-2.98-0.55C111.11-88.02,112.95-88.81,113.1-87.32z"/>
	<path class="st0" d="M114.09-85.51c1.02-0.78,1.91,0.34,2.88,0.43C116-85.11,115.02-85.18,114.09-85.51z"/>
	<path class="st0" d="M114.45-86.21c-0.78,0.13-1.53,0.69-2.14-0.04l-0.59-0.39C112.61-86.65,113.89-87.42,114.45-86.21z"/>
	<path class="st0" d="M121.18-101.92c-0.37-0.19-0.76-0.37-1.15-0.52c-0.24-0.02-0.48-0.01-0.72,0.03c0,0.2,0.01,0.4,0.01,0.59
		C119.9-101.68,120.56-101.9,121.18-101.92z"/>
	<path class="st0" d="M123.29-100.46c-0.39-0.36-0.82-0.68-1.27-0.97c-0.61,0.04-1.81,0.16-2.76,0.27
		c-0.02,0.12-0.04,0.25-0.06,0.37c0.06,0.16,0.07,0.34,0.06,0.52C120.21-100.2,122.59-100.4,123.29-100.46z"/>
	<path class="st0" d="M123.82-99.93c-0.65,0.08-3.11,0.1-4.6,0.16c-0.06,0.46-0.09,0.91,0.32,1.21l5.23-0.11
		C124.5-99.12,124.18-99.54,123.82-99.93z"/>
	<path class="st0" d="M125.06-98.16l-4.65,0.16c0.59,0.42,1.12,0.89,1.58,1.43l3.62-0.04C125.48-97.15,125.3-97.67,125.06-98.16z"/>
	<path class="st0" d="M125.75-94.47l0.03-0.74c-0.01-0.28-0.03-0.56-0.07-0.83c-0.71,0.05-2.05,0.05-3.28,0.05
		c0.26,0.37,0.49,0.77,0.7,1.22c0.03,0.09,0.06,0.19,0.07,0.3C124.15-94.46,125.1-94.45,125.75-94.47z"/>
	<path class="st0" d="M122.78-93.46c-1.31,0.57-1.56,0.31-2.94,0.44c0.01,0.2,0.01,0.39,0.01,0.58c1.26,0.08,4.21,0.2,5.67,0.15
		c0.06-0.24,0.11-0.49,0.16-0.73l0.04-0.85c-0.63-0.01-1.56-0.03-2.53-0.04C123.14-93.69,123.02-93.51,122.78-93.46z"/>
	<path class="st0" d="M119.82-90.38l5.01,0.11c0.21-0.47,0.39-0.94,0.54-1.43c-1.43-0.12-4.3-0.08-5.51-0.14
		C119.85-91.32,119.84-90.84,119.82-90.38z"/>
	<path class="st0" d="M119.73-88.6c1.38,0.05,3.16,0.08,4.05,0.13c0.29-0.39,0.55-0.81,0.77-1.25l-4.76-0.13
		C119.77-89.43,119.75-89.02,119.73-88.6z"/>
	<path class="st0" d="M119.8-87.95c-0.03,0.01-0.06,0.03-0.09,0.05c0,0.24-0.01,0.48,0,0.73c0.76,0.02,1.95,0.2,2.88,0.04
		c0.27-0.25,0.53-0.51,0.77-0.8C122.32-88.04,120.35-88.19,119.8-87.95z"/>
	<path class="st0" d="M119.72-86.42c0,0.14,0.01,0.28,0.02,0.43c0.29,0.06,0.57,0.14,0.84,0.17c0.5-0.22,0.97-0.49,1.41-0.82
		C121.24-86.71,120.3-87.04,119.72-86.42z"/>
</g>
<g>
	<path class="st1" d="M122.93-103.26c-0.05,0.17-0.16,0.11-0.29,0.11c-0.12-0.05-0.11-0.16-0.14-0.24
		C122.58-103.73,123.15-103.51,122.93-103.26z"/>
	<path class="st1" d="M124.83-101.97c-0.05,0.12-0.15,0.18-0.27,0.19c-0.11-0.07-0.22-0.17-0.16-0.31c0.04-0.15,0.22-0.19,0.31-0.16
		C124.74-102.15,124.93-102.08,124.83-101.97z"/>
	<path class="st1" d="M121.02-104.35c-0.07,0.2-0.22,0.25-0.38,0.17c0-0.09-0.09-0.18-0.05-0.24
		C120.64-104.73,121.08-104.62,121.02-104.35z"/>
	<path class="st1" d="M126.2-100.42c-0.14,0.12-0.42,0.14-0.46-0.09c-0.04-0.17,0.21-0.32,0.34-0.29
		C126.23-100.69,126.24-100.57,126.2-100.42z"/>
	<path class="st1" d="M118.74-104.91c-0.07,0.11-0.14,0.18-0.27,0.19c-0.13-0.08-0.27-0.14-0.25-0.31
		C118.34-105.23,118.75-105.2,118.74-104.91z"/>
	<path class="st1" d="M116.68-105.31c-0.1,0.15-0.22,0.16-0.37,0.11c-0.08-0.02-0.07-0.13-0.08-0.2
		C116.26-105.77,116.71-105.53,116.68-105.31z"/>
	<path class="st1" d="M127.06-98.41c-0.07,0.2-0.22,0.25-0.38,0.17c-0.08-0.05-0.13-0.17-0.07-0.26c0.09-0.09,0.13-0.25,0.27-0.19
		C126.98-98.61,127.05-98.54,127.06-98.41z"/>
	<path class="st1" d="M127.48-96.27c-0.06,0.14-0.19,0.3-0.35,0.22c-0.02-0.1-0.1-0.22-0.12-0.28c0.06-0.14,0.21-0.19,0.33-0.15
		C127.45-96.47,127.44-96.36,127.48-96.27z"/>
	<path class="st1" d="M114.17-104.78c-0.1,0.02-0.16,0.11-0.29,0.12c-0.2-0.07-0.13-0.17-0.12-0.28
		C113.88-105.21,114.34-105.03,114.17-104.78z"/>
	<path class="st1" d="M128.05-93.79c-0.06,0.23-0.24,0.14-0.38,0.12c-0.16-0.13-0.12-0.47,0.16-0.47
		C127.95-94.06,128.12-93.95,128.05-93.79z"/>
	<path class="st1" d="M112.31-103.82c-0.14,0.03-0.31,0.1-0.39-0.04c-0.01-0.13,0.09-0.42,0.26-0.31
		C112.39-104.13,112.34-103.95,112.31-103.82z"/>
	<path class="st1" d="M127.61-91.45l-0.12,0.19c-0.2,0.02-0.44-0.2-0.26-0.38C127.29-91.84,127.78-91.76,127.61-91.45z"/>
	<path class="st1" d="M110.28-102.68c-0.1,0.15-0.22,0.16-0.38,0.12c-0.08-0.02-0.07-0.13-0.08-0.2
		C109.94-102.99,110.29-102.97,110.28-102.68z"/>
	<path class="st1" d="M116.36-96.49c-0.04,0.15-0.28,0.15-0.38,0.12c-0.02-0.11-0.23-0.21-0.07-0.31c0.04-0.15,0.19-0.2,0.31-0.16
		C116.39-96.81,116.4-96.59,116.36-96.49z"/>
	<path class="st1" d="M108.81-101.31c-0.1,0.02-0.18,0.18-0.29,0.08c-0.06-0.04-0.23-0.12-0.12-0.23
		C108.45-101.73,108.91-101.64,108.81-101.31z"/>
	<path class="st1" d="M116.64-95.8l-0.32-0.21c0.01-0.2,0.23-0.45,0.43-0.29C116.89-96.15,116.84-95.88,116.64-95.8z"/>
	<path class="st1" d="M115.61-96.68c-0.1,0.2-0.44,0.07-0.5-0.11c-0.08-0.2,0.2-0.21,0.28-0.33
		C115.59-97.06,115.67-96.86,115.61-96.68z"/>
	<path class="st1" d="M126.99-88.94c-0.14,0.18-0.26,0.04-0.41-0.06c-0.12-0.14,0.05-0.39,0.24-0.36
		C127-89.33,127.01-89.07,126.99-88.94z"/>
	<path class="st1" d="M117.12-95.34c-0.04,0.15-0.19,0.21-0.31,0.16c-0.15-0.04-0.15-0.28-0.12-0.38
		C116.81-95.84,117.28-95.59,117.12-95.34z"/>
	<path class="st1" d="M114.76-96.81c-0.05,0.17-0.22,0.16-0.36,0.22c-0.26-0.14-0.15-0.46,0.07-0.56
		C114.66-97.12,114.74-97.01,114.76-96.81z"/>
	<path class="st1" d="M117.15-94.6c-0.11,0.2-0.42,0.33-0.53,0.02c-0.01-0.13,0.09-0.37,0.3-0.32
		C117.02-94.83,117.17-94.77,117.15-94.6z"/>
	<path class="st1" d="M113.86-96.53c-0.04,0.16-0.28,0.15-0.38,0.12c-0.08-0.06-0.06-0.19-0.09-0.27
		C113.45-97,114.14-96.91,113.86-96.53z"/>
	<path class="st1" d="M113.18-96.18c-0.04,0.15-0.19,0.21-0.31,0.16c-0.11-0.01-0.1-0.12-0.14-0.21
		C112.81-96.63,113.34-96.47,113.18-96.18z"/>
	<path class="st1" d="M107.46-99.46l-0.34,0.05c-0.13-0.17,0.05-0.45,0.26-0.4C107.47-99.66,107.48-99.62,107.46-99.46z"/>
	<path class="st1" d="M125.87-87.45c-0.08,0.13-0.19,0.3-0.35,0.22c-0.23-0.15-0.18-0.42,0.02-0.5
		C125.66-87.73,125.91-87.66,125.87-87.45z"/>
	<path class="st1" d="M112.66-95.56c-0.04,0.15-0.2,0.08-0.33,0.14c-0.19-0.12-0.21-0.41,0.04-0.48
		C112.53-95.92,112.76-95.77,112.66-95.56z"/>
	<path class="st1" d="M116.49-92.95c-0.13,0.07-0.23,0.21-0.36,0.13c-0.14-0.06-0.29-0.19-0.22-0.35
		C116.08-93.42,116.74-93.33,116.49-92.95z"/>
	<path class="st1" d="M116.91-93.74c-0.13,0.07-0.23,0.21-0.36,0.13c-0.14-0.06-0.3-0.19-0.22-0.35
		C116.5-94.22,117.16-94.12,116.91-93.74z"/>
	<path class="st1" d="M112.15-94.69c-0.14-0.12-0.45-0.14-0.26-0.38C112.11-95.46,112.58-94.89,112.15-94.69z"/>
	<path class="st1" d="M115.95-92.43c-0.07,0.25-0.28,0.21-0.46,0.15c-0.12-0.23,0.06-0.5,0.3-0.47
		C115.94-92.7,116-92.55,115.95-92.43z"/>
	<path class="st1" d="M112.17-94.16c-0.04,0.15-0.2,0.17-0.31,0.25c-0.11-0.07-0.18-0.15-0.18-0.27
		C111.71-94.52,112.22-94.47,112.17-94.16z"/>
	<path class="st1" d="M106.52-97.69c-0.05,0.12-0.14,0.18-0.27,0.19c-0.15-0.1-0.16-0.22-0.12-0.38
		C106.26-98.07,106.59-97.85,106.52-97.69z"/>
	<path class="st1" d="M115.16-92.01c-0.05,0.12-0.12,0.19-0.25,0.2c-0.13-0.08-0.28-0.12-0.26-0.29
		C114.75-92.49,115.26-92.3,115.16-92.01z"/>
	<path class="st1" d="M124.51-85.81c-0.06,0.14-0.22,0.19-0.34,0.14c-0.15-0.13-0.02-0.38,0.15-0.42
		C124.39-86,124.6-85.96,124.51-85.81z"/>
	<path class="st1" d="M114.38-91.92c-0.07,0.11-0.11,0.26-0.28,0.24c-0.13-0.08-0.2-0.19-0.22-0.35
		C113.96-92.43,114.55-92.22,114.38-91.92z"/>
	<path class="st1" d="M112.35-93.33c-0.03,0.19-0.12,0.28-0.34,0.29c-0.15-0.04-0.16-0.26-0.12-0.38l0.19-0.15L112.35-93.33z"/>
	<path class="st1" d="M113.52-91.9c-0.1,0.02-0.16,0.11-0.29,0.08c-0.19-0.03-0.2-0.25-0.17-0.38
		C113.25-92.53,113.75-92.2,113.52-91.9z"/>
	<path class="st1" d="M112.73-92.57c-0.07,0.11-0.13,0.25-0.3,0.23c-0.27-0.09-0.15-0.28-0.1-0.49
		C112.49-92.94,112.74-92.77,112.73-92.57z"/>
	<path class="st1" d="M105.83-95.76c-0.13,0.06-0.21,0.37-0.4,0.19c-0.11-0.19-0.03-0.47,0.21-0.46
		C105.76-95.96,105.83-95.88,105.83-95.76z"/>
	<path class="st1" d="M122.98-84.48c-0.03,0.1-0.15,0.18-0.27,0.18c-0.14-0.06-0.19-0.21-0.14-0.33
		C122.65-84.85,123.02-84.73,122.98-84.48z"/>
	<path class="st1" d="M105.68-93.39c-0.05,0.17-0.16,0.11-0.27,0.09c-0.15-0.13-0.12-0.41,0.11-0.41
		C105.63-93.64,105.87-93.54,105.68-93.39z"/>
	<path class="st1" d="M120.87-83.45c-0.08-0.02-0.13,0.06-0.16,0.11c-0.15,0.05-0.3-0.14-0.24-0.28
		C120.58-83.97,121.02-83.71,120.87-83.45z"/>
	<path class="st1" d="M106.13-91.45c-0.05,0.12-0.12,0.19-0.25,0.2c-0.12-0.05-0.17-0.15-0.19-0.27
		C105.74-91.82,106.18-91.71,106.13-91.45z"/>
	<path class="st1" d="M118.65-82.94c-0.1-0.03-0.31,0.07-0.32-0.15c-0.02-0.2,0.21-0.32,0.37-0.24
		C118.8-83.23,118.77-83.04,118.65-82.94z"/>
	<path class="st1" d="M106.84-89.54c-0.01,0.11-0.14,0.12-0.24,0.14l-0.19-0.12l0.21-0.32C106.72-89.76,106.86-89.7,106.84-89.54z"
		/>
	<path class="st1" d="M116.6-82.98c-0.08,0.07-0.14,0.3-0.27,0.18c-0.15-0.04-0.2-0.19-0.16-0.31
		C116.25-83.32,116.64-83.22,116.6-82.98z"/>
	<path class="st1" d="M107.86-87.59c-0.03,0.13-0.14,0.12-0.24,0.14c-0.11-0.1-0.28-0.36,0-0.42
		C107.78-87.92,107.93-87.73,107.86-87.59z"/>
	<path class="st1" d="M114.8-83.22c-0.05,0.12-0.15,0.18-0.27,0.19c-0.12-0.05-0.19-0.12-0.2-0.25
		C114.39-83.57,114.81-83.48,114.8-83.22z"/>
	<path class="st1" d="M109.26-86.17c-0.01,0.11-0.16,0.11-0.24,0.14c-0.11-0.07-0.18-0.14-0.18-0.27
		C108.87-86.6,109.41-86.46,109.26-86.17z"/>
	<path class="st1" d="M112.59-83.85c-0.06,0.08-0.14,0.21-0.24,0.14c-0.11-0.07-0.18-0.14-0.19-0.27
		C112.28-84.2,112.68-84.12,112.59-83.85z"/>
	<path class="st1" d="M110.9-84.8c-0.1,0.11-0.36,0.28-0.44-0.02c-0.02-0.1,0.1-0.29,0.26-0.25
		C110.83-85.03,110.89-84.93,110.9-84.8z"/>
</g>
<path class="st1" d="M102.24-94.05c0,7.97,6.48,14.45,14.44,14.45c7.97,0,14.45-6.48,14.45-14.45s-6.48-14.45-14.45-14.45
	C108.72-108.5,102.24-102.02,102.24-94.05z M103.29-94.05c0-7.39,6.01-13.4,13.4-13.4c7.39,0,13.4,6.01,13.4,13.4
	c0,7.39-6.01,13.4-13.4,13.4C109.3-80.65,103.29-86.66,103.29-94.05z"/>
<g>
	<g>
		<path class="st1" d="M129.3-75.33l-2.72-4.1l-1.42,0.94c0,0-0.29,0.16-0.17,0.34c0.11,0.16,0.32,0.06,0.32,0.06
			s0.09-0.04,0.19,0.12l1.97,2.97c0,0,0.09,0.18-0.03,0.35c0,0-0.14,0.17-0.06,0.29c0.12,0.17,0.3,0.08,0.38,0.03L129.3-75.33z"/>
		<path class="st1" d="M128.74-79.47l-0.64-0.97l-1.27,0.85l0.19,0.28c0,0,0.38-0.23,0.82-0.14c0.45,0.09,0.72,0.25,0.72,0.25
			s0.13,0.11,0.23-0.02C128.87-79.3,128.74-79.47,128.74-79.47z"/>
		<path class="st1" d="M130.18-77.3l0.64,0.97l-1.27,0.85l-0.19-0.28c0,0,0.36-0.26,0.45-0.71c0.09-0.44,0.05-0.77,0.05-0.77
			s-0.05-0.16,0.11-0.21C130.07-77.49,130.18-77.3,130.18-77.3z"/>
		<path class="st1" d="M128.03-77.79c0,0,0.2-0.33,0.09-0.75c-0.12-0.42,0.19-0.35,0.24-0.27l0.93,1.4c0.05,0.07,0,0.39-0.34,0.11
			c-0.35-0.27-0.73-0.21-0.73-0.21L128.03-77.79z"/>
	</g>
	<g>
		<path class="st1" d="M108.41-73.45c0,0-0.39-0.14-0.24-0.53l1.23-3.12c0.15-0.39,0.54-0.23,0.54-0.23l0.14-0.35
			c0,0-2.06-0.89-2.99,1.47c-0.93,2.36,1.19,3.11,1.19,3.11L108.41-73.45z"/>
		<path class="st1" d="M108.69-73.34c0,0,0.38,0.16,0.54-0.23l1.23-3.12c0.15-0.39-0.24-0.53-0.24-0.53l0.13-0.35
			c0,0,2.12,0.75,1.19,3.11c-0.93,2.36-2.99,1.47-2.99,1.47L108.69-73.34z"/>
	</g>
	<g>
		<path class="st1" d="M103.74-76.01c0,0-0.35-0.24-0.1-0.58l1.97-2.71c0.25-0.34,0.58-0.08,0.58-0.08l0.22-0.3
			c0,0-1.78-1.39-3.27,0.65c-1.49,2.05,0.38,3.32,0.38,3.32L103.74-76.01z"/>
		<path class="st1" d="M106.68-77.42c0.4-1.08-0.26-1.79-0.26-1.79l0.22-0.3c0,0,0.27,0.2,0.47,0.58c0,0,0.16,0.38,0.35,0.3
			c0.12-0.05,0.25-0.1,0.35-0.04c0.09,0.07,0.1,0.2,0.05,0.27c-0.06,0.08-0.89,1.23-0.89,1.23s-0.12,0.16-0.26,0.05
			C106.58-77.21,106.68-77.42,106.68-77.42z"/>
		<path class="st1" d="M105.67-75.49c-1.06,0.59-1.93-0.05-1.93-0.05l0.22-0.3c0,0,0.72,0.47,1.51,0.04c0,0,0.21-0.13,0.31,0.05
			C105.87-75.61,105.67-75.49,105.67-75.49z"/>
	</g>
	<g>
		<path class="st1" d="M113.8-71.66c0.09,0.01,0.3,0.02,0.34-0.19c0.02-0.15-0.18-0.24-0.18-0.24c-0.19-0.1-0.18-0.3-0.18-0.3
			l0.59-4.15l-1.69-0.24c0,0-0.32-0.08-0.36,0.15c-0.03,0.19,0.2,0.26,0.2,0.26s0.09,0.03,0.06,0.22l-0.5,3.53
			c0,0-0.05,0.19-0.26,0.24c0,0-0.22,0.04-0.24,0.19c-0.03,0.21,0.18,0.26,0.27,0.27L113.8-71.66z"/>
		<path class="st1" d="M116-75.14l0.16-1.15l-1.52-0.21l-0.05,0.34c0,0,0.44,0.08,0.71,0.44c0.27,0.36,0.37,0.67,0.37,0.67
			s0.02,0.16,0.19,0.14C115.98-74.93,116-75.14,116-75.14z"/>
		<path class="st1" d="M114.35-74.36c0,0,0.37-0.11,0.57-0.51c0.19-0.4,0.37-0.13,0.36-0.05l-0.23,1.66
			c-0.01,0.08-0.26,0.29-0.33-0.14c-0.08-0.44-0.4-0.64-0.4-0.64L114.35-74.36z"/>
	</g>
	<g>
		<path class="st1" d="M119.24-71.63c0.09-0.01,0.3-0.06,0.28-0.26c-0.01-0.15-0.23-0.19-0.23-0.19c-0.21-0.05-0.25-0.25-0.25-0.25
			l-0.42-4.17l-1.7,0.17c0,0-0.33,0-0.31,0.23c0.02,0.19,0.26,0.2,0.26,0.2s0.09,0.01,0.12,0.2l0.36,3.54c0,0,0,0.2-0.19,0.29
			c0,0-0.2,0.09-0.19,0.24c0.02,0.21,0.23,0.21,0.33,0.2L119.24-71.63z"/>
		<path class="st1" d="M120.55-75.53l-0.12-1.16l-1.52,0.15l0.03,0.34c0,0,0.45-0.03,0.8,0.26c0.35,0.29,0.52,0.56,0.52,0.56
			s0.06,0.15,0.22,0.09C120.58-75.32,120.55-75.53,120.55-75.53z"/>
		<path class="st1" d="M119.13-74.38c0,0,0.33-0.2,0.43-0.63c0.09-0.43,0.33-0.22,0.34-0.13l0.17,1.67
			c0.01,0.09-0.18,0.34-0.36-0.06c-0.18-0.4-0.54-0.53-0.54-0.53L119.13-74.38z"/>
	</g>
	<g>
		<path class="st1" d="M124.45-72.86l-1.67-4.62l-1.6,0.57c0,0-0.32,0.08-0.24,0.29c0.06,0.18,0.3,0.13,0.3,0.13
			s0.09-0.02,0.16,0.17l1.21,3.35c0,0,0.05,0.19-0.11,0.33c0,0-0.18,0.13-0.12,0.27c0.07,0.2,0.28,0.15,0.37,0.12L124.45-72.86z"/>
		<path class="st1" d="M124.9-77.01l-0.39-1.09l-1.44,0.52l0.12,0.32c0,0,0.43-0.13,0.83,0.06c0.41,0.2,0.64,0.42,0.64,0.42
			s0.1,0.13,0.23,0.04C124.98-76.82,124.9-77.01,124.9-77.01z"/>
		<path class="st1" d="M125.78-74.57l0.39,1.09l-1.44,0.52l-0.12-0.32c0,0,0.42-0.17,0.61-0.58c0.19-0.41,0.23-0.73,0.23-0.73
			s-0.01-0.17,0.16-0.18C125.72-74.77,125.78-74.57,125.78-74.57z"/>
		<path class="st1" d="M123.8-75.55c0,0,0.28-0.27,0.26-0.71c-0.01-0.44,0.27-0.29,0.3-0.21l0.57,1.58
			c0.03,0.08-0.09,0.38-0.36,0.03c-0.27-0.35-0.66-0.38-0.66-0.38L123.8-75.55z"/>
	</g>
</g>
<g>
	<path class="st1" d="M101.76-103.4c0.05-0.09,0.13-0.29-0.06-0.4c-0.14-0.08-0.3,0.08-0.3,0.08c-0.17,0.14-0.36,0.06-0.36,0.06
		l-3.28-1.79c-0.18-0.1-0.15-0.19-0.15-0.19s0.08-0.24-0.09-0.33c-0.21-0.11-0.34,0.21-0.34,0.21l-0.86,1.57c0,0-0.19,0.29,0.01,0.4
		c0.17,0.1,0.33-0.1,0.33-0.1s0.06-0.08,0.24,0.02l3.28,1.79c0,0,0.17,0.12,0.14,0.34c0,0-0.04,0.23,0.09,0.3
		c0.19,0.11,0.32-0.07,0.37-0.16L101.76-103.4z"/>
	<g>
		<path class="st1" d="M99.78-98.81l-4.96-1.44l-0.5,1.71c0,0-0.13,0.32,0.1,0.39c0.19,0.06,0.3-0.17,0.3-0.17s0.04-0.09,0.24-0.03
			l3.59,1.05c0,0,0.19,0.08,0.21,0.3c0,0,0,0.23,0.16,0.28c0.21,0.06,0.3-0.14,0.33-0.24L99.78-98.81z"/>
		<path class="st1" d="M99.48-99.21c0,0,0.13-0.42-0.29-0.54l-3.38-0.99c-0.42-0.12-0.53,0.3-0.53,0.3l-0.38-0.11
			c0,0,0.58-2.3,3.14-1.55c2.56,0.74,1.82,3,1.82,3L99.48-99.21z"/>
	</g>
	<g>
		<path class="st1" d="M129.4-106.21l3.7-3.6l-1.24-1.28c0,0-0.22-0.27-0.39-0.11c-0.14,0.14,0,0.34,0,0.34s0.06,0.08-0.09,0.22
			l-2.68,2.61c0,0-0.17,0.13-0.37,0.03c0,0-0.2-0.11-0.31,0c-0.16,0.15-0.02,0.33,0.04,0.4L129.4-106.21z"/>
		<path class="st1" d="M133.57-107.58l0.88-0.85l-1.12-1.15l-0.26,0.25c0,0,0.31,0.35,0.3,0.82c-0.01,0.48-0.12,0.8-0.12,0.8
			s-0.08,0.15,0.07,0.24C133.42-107.42,133.57-107.58,133.57-107.58z"/>
		<path class="st1" d="M131.62-105.69l-0.88,0.85l-1.12-1.15l0.26-0.25c0,0,0.34,0.32,0.81,0.33c0.48,0,0.8-0.1,0.8-0.1
			s0.15-0.08,0.24,0.07C131.79-105.83,131.62-105.69,131.62-105.69z"/>
		<path class="st1" d="M131.69-107.99c0,0,0.38,0.15,0.79-0.06c0.42-0.2,0.39,0.13,0.33,0.19l-1.26,1.23
			c-0.06,0.06-0.4,0.08-0.18-0.33c0.22-0.41,0.08-0.79,0.08-0.79L131.69-107.99z"/>
	</g>
	<g>
		<path class="st1" d="M112.53-111.15l-1.27-5l-1.73,0.44c0,0-0.34,0.05-0.29,0.28c0.05,0.19,0.3,0.17,0.3,0.17s0.1-0.01,0.15,0.19
			l0.92,3.62c0,0,0.03,0.21-0.15,0.34c0,0-0.2,0.12-0.16,0.27c0.05,0.21,0.27,0.19,0.37,0.16L112.53-111.15z"/>
		<path class="st1" d="M113.41-115.44l-0.3-1.18l-1.56,0.4l0.09,0.35c0,0,0.46-0.1,0.87,0.15c0.41,0.25,0.63,0.5,0.63,0.5
			s0.09,0.15,0.24,0.06C113.48-115.23,113.41-115.44,113.41-115.44z"/>
		<path class="st1" d="M114.08-112.81l0.3,1.18l-1.56,0.4l-0.09-0.35c0,0,0.45-0.13,0.69-0.54c0.24-0.41,0.31-0.74,0.31-0.74
			s0.01-0.17,0.18-0.17C114.04-113.03,114.08-112.81,114.08-112.81z"/>
		<path class="st1" d="M112.12-114.02c0,0,0.32-0.25,0.35-0.72c0.03-0.46,0.31-0.28,0.33-0.19l0.43,1.71
			c0.02,0.09-0.13,0.38-0.38-0.01c-0.25-0.39-0.65-0.46-0.65-0.46L112.12-114.02z"/>
	</g>
	<g>
		<path class="st1" d="M134.64-94.6c0,0-0.02-0.44,0.42-0.45l3.52-0.07c0.44-0.01,0.44,0.43,0.44,0.43l0.39-0.01
			c0,0,0.03-2.36-2.63-2.3c-2.66,0.06-2.53,2.41-2.53,2.41L134.64-94.6z"/>
		<path class="st1" d="M134.65-94.29c0,0,0,0.44,0.44,0.43l3.52-0.07c0.44-0.01,0.42-0.45,0.42-0.45l0.39-0.01
			c0,0,0.13,2.35-2.53,2.41c-2.66,0.06-2.63-2.3-2.63-2.3L134.65-94.29z"/>
	</g>
	<g>
		<path class="st1" d="M121.33-111.01c0.1,0.03,0.32,0.06,0.37-0.15c0.04-0.15-0.15-0.28-0.15-0.28c-0.18-0.13-0.15-0.34-0.15-0.34
			l1.18-4.24l-1.73-0.48c0,0-0.33-0.12-0.39,0.1c-0.05,0.19,0.18,0.29,0.18,0.29s0.09,0.04,0.04,0.24l-1,3.6c0,0-0.08,0.2-0.3,0.22
			c0,0-0.23,0.01-0.27,0.16c-0.06,0.21,0.15,0.3,0.24,0.32L121.33-111.01z"/>
		<path class="st1" d="M122.74-112.87l-0.67-0.18l0.1-0.38c0,0,0.42,0.13,0.54-0.3l0.36-1.31c0.12-0.42-0.31-0.53-0.31-0.53
			l0.1-0.38l0.66,0.18c0,0,1.64,0.33,1.21,1.89C124.31-112.31,122.74-112.87,122.74-112.87z"/>
	</g>
	<g>
		<path class="st1" d="M118.33-115.17c-0.32-1.17-1.31-1.24-1.31-1.24l0-0.39c0,0,0.36,0,0.76,0.21c0,0,0.36,0.23,0.48,0.05
			c0.08-0.12,0.15-0.24,0.27-0.24c0.12,0,0.21,0.11,0.21,0.2c0,0.11-0.02,1.46-0.02,1.46s0,0.21-0.19,0.2
			C118.36-114.94,118.33-115.17,118.33-115.17z"/>
		<path class="st1" d="M115.38-113.1c0.39,1.15,1.29,1.06,1.29,1.06l0,0.39c0,0-0.38,0.02-0.77-0.19c0,0-0.25-0.15-0.42-0.02
			c-0.11,0.08-0.2,0.2-0.32,0.2c-0.12,0-0.21-0.11-0.21-0.2c0-0.11,0.01-1.32,0.01-1.32s0-0.16,0.2-0.16
			C115.33-113.34,115.38-113.1,115.38-113.1z"/>
		<path class="st1" d="M116.97-112.04c0.2-0.02,0.37-0.07,0.59-0.2c0.24-0.14,0.36-0.33,0.37-0.58c-0.01-0.34-0.27-0.57-0.8-0.7
			l-0.58-0.13c-0.22-0.05-0.43-0.1-0.6-0.16c-0.24-0.08-0.45-0.19-0.62-0.33c-0.16-0.13-0.29-0.3-0.37-0.49
			c-0.08-0.19-0.12-0.39-0.11-0.6c0-0.46,0.17-0.85,0.51-1.15c0.33-0.29,0.85-0.43,1.37-0.44l0,0l0,0l0,0.4
			c-0.28,0-0.6,0.06-0.79,0.18c-0.18,0.12-0.27,0.27-0.27,0.46c0,0.16,0.07,0.27,0.2,0.33c0.14,0.06,0.31,0.11,0.51,0.15l0.61,0.12
			c0.55,0.12,0.95,0.32,1.23,0.55c0.37,0.29,0.76,0.77,0.76,1.28c0,0.21-0.02,0.4-0.09,0.58c-0.14,0.36-0.41,0.64-0.75,0.84
			c-0.34,0.2-0.79,0.29-1.17,0.29L116.97-112.04z"/>
	</g>
	<g>
		<path class="st1" d="M137.41-98.37c1.03-0.63,0.83-1.6,0.83-1.6l0.38-0.1c0,0,0.1,0.34,0.01,0.79c0,0-0.12,0.41,0.09,0.47
			c0.13,0.04,0.28,0.08,0.31,0.2c0.03,0.12-0.04,0.23-0.13,0.25c-0.1,0.03-1.41,0.39-1.41,0.39s-0.2,0.06-0.25-0.13
			C137.19-98.26,137.41-98.37,137.41-98.37z"/>
		<path class="st1" d="M134.59-100.62c-0.99,0.7-0.66,1.53-0.66,1.53l-0.38,0.11c0,0-0.12-0.36-0.03-0.8c0,0,0.08-0.28-0.1-0.41
			c-0.11-0.09-0.25-0.14-0.28-0.25c-0.03-0.12,0.04-0.23,0.13-0.25c0.1-0.03,1.27-0.35,1.27-0.35s0.15-0.04,0.21,0.15
			C134.81-100.73,134.59-100.62,134.59-100.62z"/>
		<path class="st1" d="M134.03-98.8c0.07,0.19,0.17,0.34,0.35,0.51c0.2,0.19,0.42,0.25,0.66,0.19c0.32-0.1,0.47-0.42,0.45-0.97
			l-0.03-0.6c-0.02-0.23-0.02-0.44-0.02-0.62c0.01-0.26,0.05-0.49,0.14-0.68c0.08-0.2,0.21-0.36,0.36-0.49
			c0.16-0.13,0.34-0.22,0.54-0.27c0.45-0.13,0.87-0.07,1.25,0.17c0.37,0.23,0.65,0.69,0.8,1.19l0,0l0,0l-0.39,0.11
			c-0.08-0.27-0.23-0.56-0.4-0.71c-0.16-0.14-0.33-0.18-0.51-0.13c-0.15,0.05-0.24,0.14-0.26,0.29c-0.02,0.15-0.02,0.33,0,0.53
			c0,0,0.06,0.62,0.06,0.62c0.04,0.57-0.05,1-0.18,1.34c-0.18,0.43-0.53,0.95-1.01,1.08c-0.2,0.06-0.39,0.09-0.59,0.07
			c-0.39-0.04-0.73-0.21-1.01-0.48c-0.29-0.27-0.5-0.68-0.6-1.04L134.03-98.8z"/>
	</g>
	<g>
		<path class="st1" d="M135.81-103.14c0.86-0.86,0.42-1.75,0.42-1.75l0.34-0.19c0,0,0.17,0.31,0.2,0.77c0,0-0.02,0.43,0.2,0.44
			c0.14,0.01,0.29,0.01,0.35,0.12c0.06,0.11,0.01,0.23-0.07,0.28c-0.09,0.05-1.27,0.71-1.27,0.71s-0.18,0.1-0.27-0.06
			C135.63-102.99,135.81-103.14,135.81-103.14z"/>
		<path class="st1" d="M132.54-104.66c-0.8,0.91-0.28,1.65-0.28,1.65l-0.34,0.19c0,0-0.21-0.32-0.22-0.77c0,0,0.01-0.29-0.19-0.38
			c-0.13-0.06-0.27-0.07-0.33-0.18c-0.06-0.11-0.01-0.23,0.07-0.28c0.09-0.05,1.15-0.65,1.15-0.65s0.14-0.08,0.24,0.1
			C132.73-104.82,132.54-104.66,132.54-104.66z"/>
		<path class="st1" d="M132.42-102.76c0.12,0.17,0.24,0.29,0.47,0.41c0.24,0.14,0.46,0.15,0.69,0.03c0.29-0.17,0.36-0.52,0.21-1.05
			l-0.17-0.57c-0.07-0.22-0.13-0.42-0.16-0.6c-0.06-0.25-0.06-0.49-0.03-0.7c0.03-0.21,0.11-0.4,0.24-0.56
			c0.12-0.16,0.28-0.3,0.46-0.4c0.4-0.23,0.82-0.28,1.25-0.13c0.41,0.14,0.8,0.52,1.06,0.97l0,0l0,0l-0.35,0.2
			c-0.14-0.24-0.35-0.49-0.55-0.59c-0.19-0.1-0.37-0.1-0.53-0.01c-0.14,0.08-0.2,0.19-0.19,0.34c0.01,0.15,0.06,0.32,0.13,0.51
			l0.2,0.59c0.17,0.54,0.19,0.99,0.14,1.34c-0.07,0.46-0.29,1.05-0.73,1.29c-0.18,0.1-0.36,0.18-0.55,0.21
			c-0.38,0.06-0.76-0.03-1.1-0.23c-0.34-0.19-0.65-0.54-0.83-0.87L132.42-102.76z"/>
	</g>
	<g>
		<path class="st1" d="M125.36-109.37c0.09,0.05,0.29,0.14,0.4-0.05c0.08-0.14-0.08-0.31-0.08-0.31c-0.14-0.17-0.06-0.37-0.06-0.37
			l2.19-3.82l-1.55-0.89c0,0-0.29-0.2-0.4,0c-0.1,0.17,0.1,0.33,0.1,0.33s0.08,0.06-0.02,0.24l-1.86,3.24c0,0-0.12,0.17-0.35,0.13
			c0,0-0.22-0.05-0.3,0.09c-0.11,0.19,0.07,0.32,0.16,0.37L125.36-109.37z"/>
		<path class="st1" d="M127.71-108.79c-0.02,0.21,0.05,0.28,0.05,0.28s0.12,0.11,0.02,0.29c-0.12,0.21-0.47-0.03-0.47-0.03l-1-0.58
			c0,0-0.31-0.14-0.2-0.35c0.09-0.15,0.33-0.08,0.33-0.08s0.17,0.04,0.2-0.14c0,0,0.03-1.52,0.03-1.62c0-0.1-0.09-0.15-0.09-0.15
			l0.2-0.34c0,0,0.37,0.23,0.59-0.15l0.67-1.18c0.22-0.38-0.16-0.59-0.16-0.59l0.2-0.34l0.6,0.34c0,0,1.51,0.72,0.7,2.13
			c-0.53,0.93-1.32,0.83-1.79,0.67c0,0,0.15,0.05,0.15,0.37L127.71-108.79z"/>
	</g>
	<g>
		<path class="st1" d="M103.91-106.15c0.06-0.08,0.18-0.26,0.01-0.4c-0.12-0.1-0.31,0.02-0.31,0.02c-0.19,0.11-0.37-0.01-0.37-0.01
			l-0.93-0.77l-2.78-0.6c-0.17-0.05-0.11-0.22-0.11-0.22s0.11-0.23-0.03-0.34c-0.18-0.15-0.38,0.13-0.38,0.13l-1.14,1.37
			c0,0-0.24,0.24-0.06,0.39c0.14,0.11,0.3,0.01,0.3,0.01s0.07-0.04,0.27,0.02l2.78,0.6l0.93,0.77c0,0,0.15,0.15,0.08,0.36
			c0,0-0.09,0.21,0.03,0.31c0.17,0.14,0.33-0.01,0.39-0.09L103.91-106.15z"/>
		<path class="st1" d="M100.53-110.16l-0.33,0.39c0,0-0.24,0.24-0.06,0.4c0.14,0.11,0.34-0.04,0.34-0.04s0.15-0.1,0.23,0.06
			l0.59,1.55l0.54,0.12l-0.81-2.06c-0.09-0.19-0.07-0.26-0.07-0.26s0.07-0.18-0.07-0.29C100.73-110.45,100.53-110.16,100.53-110.16z
			"/>
	</g>
	<g>
		<g>
			<path class="st1" d="M104.31-108.99l0.85-0.63l-2.59-1.93l-0.11-0.31l1.28-0.95l3.68,2.74c0,0,0.14,0.15,0.36,0.09
				c0,0,0.22-0.08,0.31,0.05c0.13,0.18-0.03,0.33-0.11,0.39l-1.64,1.22c-0.08,0.06-0.27,0.17-0.4-0.01
				c-0.09-0.13,0.04-0.31,0.04-0.31c0.2-0.24,0.01-0.37,0.01-0.37l-0.49-0.36l-0.95,0.71L104.31-108.99z"/>
		</g>
		<path class="st1" d="M104.77-107.74c-0.28,0.12-0.35-0.09-0.35-0.09l-1.02-2.77l-0.66-0.49l1.3,3.54c0,0,0.11,0.18-0.01,0.37
			c0,0-0.13,0.19-0.04,0.31c0.13,0.18,0.32,0.07,0.4,0.01l0.59-0.44c0.08-0.06,0.24-0.21,0.11-0.39
			C104.99-107.82,104.77-107.74,104.77-107.74z"/>
	</g>
	<g>
		<path class="st1" d="M99.12-94.26h-5.16v1.78c0,0-0.03,0.35,0.2,0.35c0.2,0,0.24-0.25,0.24-0.25s0.02-0.1,0.22-0.1h3.74
			c0,0,0.21,0.02,0.29,0.23c0,0,0.07,0.22,0.23,0.22c0.22,0,0.25-0.22,0.25-0.32V-94.26z"/>
		<path class="st1" d="M95.18-96.17h-1.22v1.61h0.36c0,0,0.02-0.47,0.36-0.8c0.34-0.33,0.64-0.48,0.64-0.48s0.17-0.05,0.12-0.22
			C95.4-96.19,95.18-96.17,95.18-96.17z"/>
		<path class="st1" d="M97.91-96.17h1.22v1.61h-0.36c0,0-0.02-0.47-0.36-0.8c-0.34-0.33-0.64-0.48-0.64-0.48s-0.17-0.05-0.12-0.22
			C97.69-96.19,97.91-96.17,97.91-96.17z"/>
		<path class="st1" d="M96.24-94.57c0,0-0.17-0.37-0.61-0.51c-0.44-0.15-0.19-0.37-0.1-0.37h1.76c0.09,0,0.34,0.22-0.1,0.37
			c-0.44,0.14-0.61,0.51-0.61,0.51H96.24z"/>
	</g>
</g>
<g>
	<g>
		<path class="st1" d="M-11.53-65.25v-7.99h6.38v1.91h-3.82v1.06h3.23v1.83h-3.23v1.24h3.97v1.94H-11.53z"/>
		<path class="st1" d="M-3.79-65.25v-7.99h3.1c0.79,0,1.37,0.03,1.76,0.1c0.39,0.07,0.72,0.19,1.01,0.35
			c0.55,0.32,0.97,0.78,1.25,1.37c0.28,0.59,0.42,1.31,0.42,2.17c0,0.9-0.17,1.67-0.52,2.28c-0.34,0.62-0.85,1.07-1.53,1.37
			c-0.26,0.12-0.59,0.2-0.98,0.25c-0.39,0.05-1.02,0.08-1.88,0.08H-3.79z M-1.23-67.27h0.69c0.64,0,1.08-0.14,1.33-0.43
			c0.25-0.28,0.37-0.79,0.37-1.53c0-0.72-0.13-1.23-0.38-1.53c-0.25-0.3-0.68-0.45-1.29-0.45h-0.72V-67.27z"/>
		<path class="st1" d="M4.96-65.25v-7.99h2.62v7.99H4.96z"/>
		<path class="st1" d="M11.67-65.25v-2.96l-2.94-5.03h2.84l1.37,2.72l1.39-2.72h2.77l-2.87,5.03v2.96H11.67z"/>
		<path class="st1" d="M15.87-65.25l2.81-7.99h2.6l2.81,7.99h-2.54l-0.3-1.06h-2.54l-0.31,1.06H15.87z M19.17-67.98h1.61l-0.8-2.77
			L19.17-67.98z"/>
		<path class="st1" d="M33.36-68.34h2.43c-0.07,1.05-0.44,1.87-1.11,2.45c-0.67,0.58-1.57,0.87-2.72,0.87
			c-1.28,0-2.29-0.38-3.02-1.12c-0.74-0.75-1.1-1.78-1.1-3.08c0-1.3,0.37-2.33,1.09-3.08c0.73-0.75,1.72-1.13,2.97-1.13
			c1.16,0,2.07,0.28,2.73,0.84c0.66,0.56,1.04,1.36,1.11,2.4h-2.46c-0.04-0.41-0.17-0.72-0.4-0.93c-0.23-0.21-0.55-0.31-0.96-0.31
			c-0.5,0-0.88,0.18-1.13,0.55c-0.25,0.37-0.38,0.92-0.38,1.66c0,0.73,0.14,1.28,0.4,1.65c0.27,0.37,0.66,0.56,1.18,0.56
			c0.4,0,0.71-0.12,0.95-0.35C33.18-67.59,33.32-67.92,33.36-68.34z"/>
		<path class="st1" d="M36.53-69.23c0-1.3,0.37-2.33,1.11-3.08c0.74-0.75,1.76-1.13,3.04-1.13c1.28,0,2.29,0.38,3.03,1.13
			c0.74,0.75,1.11,1.78,1.11,3.08c0,1.3-0.37,2.32-1.11,3.08c-0.74,0.75-1.75,1.13-3.03,1.13c-1.28,0-2.29-0.38-3.04-1.13
			C36.9-66.91,36.53-67.93,36.53-69.23z M39.12-69.23c0,0.75,0.13,1.31,0.38,1.67c0.25,0.35,0.65,0.53,1.18,0.53
			c0.54,0,0.93-0.18,1.18-0.53c0.25-0.35,0.37-0.91,0.37-1.67c0-0.76-0.12-1.32-0.37-1.67c-0.25-0.35-0.64-0.53-1.18-0.53
			c-0.54,0-0.93,0.18-1.18,0.53C39.24-70.55,39.12-69.99,39.12-69.23z"/>
		<path class="st1" d="M46-65.25v-7.99h6.04v2.01h-3.48v1.24h2.76v1.93h-2.76v2.81H46z"/>
		<path class="st1" d="M53.02-65.25v-7.99h6.04v2.01h-3.48v1.24h2.77v1.93h-2.77v2.81H53.02z"/>
		<path class="st1" d="M60.03-65.25v-7.99h6.39v1.91H62.6v1.06h3.23v1.83H62.6v1.24h3.97v1.94H60.03z"/>
		<path class="st1" d="M67.77-65.25v-7.99h6.38v1.91h-3.82v1.06h3.23v1.83h-3.23v1.24h3.97v1.94H67.77z"/>
	</g>
</g>
<g>
	<g>
		<g>
			<path class="st2" d="M6.18,0.41v1.51H2.57h-0.2v0.2v1.06v0.2h0.2h3.03v1.43H2.57h-0.2v0.2v1.24v0.2h0.2h3.77v1.54H0.2V0.41H6.18
				 M6.38,0.21H0v7.99h6.54V6.25H2.57V5.02h3.23V3.18H2.57V2.12h3.82V0.21L6.38,0.21z"/>
		</g>
		<g>
			<path class="st2" d="M10.84,0.41c0.78,0,1.36,0.03,1.72,0.1c0.36,0.07,0.68,0.18,0.94,0.33c0.51,0.3,0.91,0.73,1.17,1.28
				c0.26,0.56,0.4,1.26,0.4,2.09c0,0.87-0.17,1.6-0.49,2.18c-0.32,0.57-0.8,1.01-1.44,1.29c-0.23,0.11-0.54,0.19-0.92,0.24
				c-0.38,0.05-1.01,0.07-1.86,0.07H7.94V0.41H10.84 M10.1,6.37h0.2H11c0.69,0,1.19-0.17,1.48-0.5c0.28-0.32,0.42-0.87,0.42-1.66
				c0-0.78-0.14-1.32-0.43-1.66c-0.29-0.35-0.78-0.52-1.44-0.52H10.3h-0.2v0.2v3.94V6.37 M10.84,0.21h-3.1v7.99h2.63
				c0.87,0,1.49-0.03,1.88-0.08c0.39-0.05,0.72-0.13,0.98-0.25c0.67-0.3,1.18-0.76,1.53-1.37c0.35-0.62,0.52-1.38,0.52-2.28
				c0-0.86-0.14-1.59-0.42-2.17c-0.28-0.59-0.7-1.05-1.25-1.37c-0.29-0.16-0.62-0.28-1.01-0.35C12.21,0.24,11.63,0.21,10.84,0.21
				L10.84,0.21z M10.3,6.17V2.23h0.72c0.61,0,1.04,0.15,1.29,0.45c0.25,0.3,0.38,0.81,0.38,1.53c0,0.74-0.12,1.25-0.37,1.53
				C12.08,6.03,11.63,6.17,11,6.17H10.3L10.3,6.17z"/>
		</g>
		<g>
			<path class="st2" d="M18.91,0.41v7.59h-2.22V0.41H18.91 M19.11,0.21h-2.62v7.99h2.62V0.21L19.11,0.21z"/>
		</g>
		<g>
			<path class="st2" d="M28.29,0.41l-2.7,4.73l-0.03,0.05v0.05v2.76h-2.16V5.24V5.18l-0.03-0.05L20.6,0.41h2.37l1.32,2.61l0.18,0.35
				l0.18-0.35l1.33-2.61H28.29 M28.63,0.21h-2.77l-1.39,2.72L23.1,0.21h-2.84l2.94,5.03v2.96h2.56V5.24L28.63,0.21L28.63,0.21z"/>
		</g>
		<g>
			<path class="st2" d="M32.67,0.41l2.67,7.59h-2.11l-0.26-0.91l-0.04-0.15h-0.15h-2.54h-0.15l-0.04,0.14l-0.27,0.91h-2.09
				l2.67-7.59H32.67 M30.43,5.66h0.27h1.61h0.27L32.5,5.4l-0.8-2.77l-0.19-0.66l-0.19,0.66L30.51,5.4L30.43,5.66 M32.81,0.21h-2.6
				L27.4,8.19h2.52l0.31-1.06h2.54l0.3,1.06h2.54L32.81,0.21L32.81,0.21z M30.7,5.46l0.81-2.77l0.8,2.77H30.7L30.7,5.46z"/>
		</g>
		<g>
			<path class="st2" d="M43.43,0.2c1.1,0,1.98,0.27,2.6,0.79c0.57,0.48,0.92,1.17,1.02,2.04H45c-0.06-0.37-0.21-0.66-0.44-0.88
				C44.3,1.92,43.93,1.8,43.46,1.8c-0.57,0-1.01,0.21-1.3,0.64c-0.28,0.4-0.41,0.98-0.41,1.77c0,0.76,0.15,1.36,0.44,1.77
				c0.31,0.43,0.76,0.64,1.34,0.64c0.45,0,0.81-0.14,1.08-0.4C44.85,5.99,45,5.68,45.07,5.3h2.03c-0.1,0.9-0.44,1.59-1.02,2.1
				c-0.64,0.55-1.48,0.82-2.59,0.82c-1.22,0-2.19-0.36-2.88-1.06c-0.69-0.71-1.04-1.7-1.04-2.94c0-1.24,0.35-2.23,1.03-2.94
				C41.29,0.56,42.24,0.2,43.43,0.2 M43.43,0c-1.25,0-2.25,0.38-2.97,1.13c-0.73,0.75-1.09,1.78-1.09,3.08
				c0,1.31,0.37,2.33,1.1,3.08c0.73,0.75,1.74,1.12,3.02,1.12c1.14,0,2.05-0.29,2.72-0.87c0.67-0.58,1.04-1.4,1.11-2.45h-2.43
				c-0.04,0.42-0.18,0.75-0.41,0.97c-0.23,0.23-0.55,0.35-0.95,0.35c-0.52,0-0.91-0.19-1.18-0.56c-0.27-0.37-0.4-0.92-0.4-1.65
				c0-0.74,0.12-1.29,0.38-1.66C42.59,2.18,42.96,2,43.46,2c0.41,0,0.73,0.1,0.96,0.31c0.23,0.21,0.36,0.52,0.4,0.93h2.46
				c-0.08-1.04-0.45-1.84-1.11-2.4C45.5,0.28,44.59,0,43.43,0L43.43,0z"/>
		</g>
		<g>
			<path class="st2" d="M52.21,0.2c1.22,0,2.19,0.36,2.89,1.07c0.71,0.72,1.05,1.68,1.05,2.94c0,1.26-0.34,2.22-1.05,2.94
				c-0.7,0.71-1.67,1.07-2.89,1.07c-1.22,0-2.19-0.36-2.9-1.07c-0.7-0.71-1.06-1.7-1.06-2.94c0-1.24,0.36-2.23,1.06-2.94
				C50.02,0.56,50.99,0.2,52.21,0.2 M52.21,6.6c0.6,0,1.05-0.21,1.34-0.61c0.28-0.39,0.41-0.97,0.41-1.78c0-0.81-0.13-1.4-0.41-1.79
				c-0.29-0.41-0.74-0.61-1.34-0.61c-0.6,0-1.06,0.21-1.35,0.62c-0.28,0.39-0.42,0.98-0.42,1.79c0,0.81,0.14,1.39,0.42,1.78
				C51.15,6.4,51.61,6.6,52.21,6.6 M52.21,0c-1.28,0-2.29,0.38-3.04,1.13c-0.74,0.75-1.11,1.78-1.11,3.08c0,1.3,0.37,2.32,1.11,3.08
				c0.74,0.75,1.76,1.13,3.04,1.13c1.28,0,2.29-0.38,3.03-1.13c0.74-0.75,1.11-1.78,1.11-3.08c0-1.3-0.37-2.33-1.11-3.08
				C54.5,0.38,53.49,0,52.21,0L52.21,0z M52.21,6.4c-0.54,0-0.93-0.18-1.18-0.53c-0.25-0.35-0.38-0.91-0.38-1.67
				c0-0.76,0.13-1.32,0.38-1.67c0.25-0.35,0.65-0.53,1.18-0.53c0.54,0,0.93,0.18,1.18,0.53c0.25,0.35,0.37,0.91,0.37,1.67
				c0,0.76-0.12,1.32-0.37,1.67C53.14,6.23,52.75,6.4,52.21,6.4L52.21,6.4z"/>
		</g>
		<g>
			<path class="st2" d="M63.37,0.41v1.61h-3.28h-0.2v0.2v1.24v0.2h0.2h2.56v1.53h-2.56h-0.2v0.2v2.61h-2.17V0.41H63.37 M63.57,0.21
				h-6.04v7.99h2.57V5.38h2.76V3.45h-2.76V2.22h3.48V0.21L63.57,0.21z"/>
		</g>
		<g>
			<path class="st2" d="M70.39,0.41v1.61h-3.28h-0.2v0.2v1.24v0.2h0.2h2.57v1.53h-2.57h-0.2v0.2v2.61h-2.16V0.41H70.39 M70.59,0.21
				h-6.04v7.99h2.56V5.38h2.77V3.45h-2.77V2.22h3.48V0.21L70.59,0.21z"/>
		</g>
		<g>
			<path class="st2" d="M77.75,0.41v1.51h-3.62h-0.2v0.2v1.06v0.2h0.2h3.03v1.43h-3.03h-0.2v0.2v1.24v0.2h0.2h3.77v1.54h-6.14V0.41
				H77.75 M77.95,0.21h-6.39v7.99h6.54V6.25h-3.97V5.02h3.23V3.18h-3.23V2.12h3.82V0.21L77.95,0.21z"/>
		</g>
		<g>
			<path class="st2" d="M85.49,0.41v1.51h-3.62h-0.2v0.2v1.06v0.2h0.2h3.03v1.43h-3.03h-0.2v0.2v1.24v0.2h0.2h3.77v1.54H79.5V0.41
				H85.49 M85.69,0.21H79.3v7.99h6.54V6.25h-3.97V5.02h3.23V3.18h-3.23V2.12h3.82V0.21L85.69,0.21z"/>
		</g>
	</g>
</g>
</svg>
