<svg xmlns="http://www.w3.org/2000/svg" width="95" height="100" fill="none"><g clip-path="url(#clip0)" fill="#000"><path d="M77.707 64.172c.796.955 2.07.16 1.433-.955l-3.662-5.096.159-9.236 9.872-3.503-37.898-14.65H46.655L8.759 45.382l16.879 6.051v9.077l.159.318c.16.318 5.414 9.076 21.338 9.076 15.923 0 21.178-8.598 21.337-9.076l.16-.319v-9.076l5.254-1.91.16 8.757-3.504 5.096c-.637.955.796 1.91 1.433.955l1.911-2.548v3.344c.16 1.115 1.752 1.115 1.911 0l.16-3.344 1.75 2.389zm-11.465-4.3c-.956 1.434-6.051 8.28-19.108 8.28-13.217 0-18.153-6.846-19.109-8.28V52.39l18.79 6.687h.637l18.79-6.688v7.485zm8.44-12.898l-5.733-2.388c-1.274-.478-1.752.637-.637 1.115l4.3 2.07-25.32 9.235-33.439-11.624 33.121-12.58 33.121 12.58-5.414 1.593zM92.357 49.204a1.752 1.752 0 100-3.503 1.752 1.752 0 000 3.503zM1.752 49.204a1.752 1.752 0 100-3.503 1.752 1.752 0 000 3.503zM10.668 70.7c1.115 1.912.478 4.46-1.592 5.733-2.07 1.115-4.618.478-5.732-1.433-1.115-1.91-.478-4.459 1.592-5.732 2.07-1.274 4.618-.637 5.732 1.433zm-6.37 3.663c.956 1.593 2.867 2.07 4.3 1.115 1.433-.956 2.07-2.866 1.115-4.3-.955-1.433-2.707-2.07-4.3-1.114-1.592.955-2.07 2.707-1.114 4.3zM7.165 80.414l6.37-5.573-.637 8.758 4.458-3.981.637.796-6.37 5.573.638-8.758-4.459 3.981-.637-.796zM18.948 81.21l4.3 3.344-.638.796-3.503-2.707-1.433 1.911 2.866 2.23-.636.796-2.867-2.23-1.751 2.07 3.503 2.707-.637.797-4.3-3.344 5.096-6.37zM28.98 94.268c-.796 1.592-2.388 1.592-3.821.955-.956-.478-1.752-1.274-2.07-1.91l.637-1.115c.159.796.955 1.751 2.07 2.229 1.114.478 2.23.318 2.548-.319.955-1.91-4.3-2.707-2.867-5.732.637-1.433 2.23-1.433 3.504-.796.796.478 1.751 1.114 1.91 1.751l-.636 1.115c-.319-.796-.956-1.592-1.911-1.91-.478-.32-1.752-.478-2.07.318-1.115 1.91 4.14 2.707 2.707 5.414zM36.306 98.408c-.797.159-1.593.159-2.39 0-2.228-.637-3.502-3.026-2.865-5.255.637-2.23 3.025-3.503 5.255-2.866.796.159 1.433.637 1.91 1.274l-.318 1.114c-.478-.637-1.115-1.114-1.911-1.433-1.752-.478-3.503.478-3.98 2.07-.479 1.752.477 3.344 2.228 3.981.797.319 1.752.16 2.389-.16l-.319 1.275zM44.268 96.338l-4.14-.478-.319 3.662-1.115-.159.796-7.962 1.115.16-.318 3.343 4.14.478.318-3.344.956.16-.797 7.961-.955-.159.319-3.662zM50.795 91.56c2.23-.159 4.3 1.593 4.46 3.822.158 2.389-1.434 4.3-3.663 4.618-2.23.159-4.3-1.592-4.459-3.822-.16-2.388 1.433-4.458 3.662-4.617zm.637 7.325c1.752-.159 3.026-1.751 2.867-3.503-.16-1.751-1.752-3.025-3.504-2.866-1.751.16-3.025 1.752-2.866 3.503.319 1.752 1.752 3.026 3.503 2.866zM59.394 89.81c2.23-.638 4.459.636 5.096 2.865.637 2.23-.478 4.618-2.707 5.255-2.23.637-4.459-.637-5.096-2.866-.637-2.23.637-4.618 2.707-5.255zm2.23 7.165c1.751-.478 2.547-2.23 2.07-3.981-.478-1.752-2.23-2.548-3.981-2.07-1.752.478-2.548 2.23-2.07 3.98.637 1.593 2.388 2.549 3.98 2.07zM68.471 94.108l3.503-1.751.478.955-4.459 2.23-3.662-7.166.956-.478 3.184 6.21zM76.911 90.287l-5.255-6.21 2.389-2.07c1.433-1.274 3.821-1.752 5.732.477 1.911 2.23.956 4.459-.477 5.733l-2.389 2.07zm.16-1.593l1.432-1.273c1.115-.956 2.07-2.548.478-4.3-1.592-1.751-3.344-1.114-4.3-.16l-1.432 1.275 3.821 4.458zM85.827 78.503L83.28 81.53l.955 1.91-.637.956-4.14-8.44 9.076 2.23-.637.796-2.07-.478zm-2.866 2.23l1.911-2.389-3.662-.955 1.751 3.344zM86.783 71.975l-1.752-3.822.637-1.115 2.389 5.096 3.025 1.751-.477.956-3.026-1.752-5.573.637.637-1.114 4.14-.637zM6.53 20.86c1.273-1.91 3.98-2.23 5.891-.956 1.91 1.434 2.23 3.981.955 5.892-1.274 1.911-3.98 2.23-5.891.956-1.752-1.433-2.23-4.14-.956-5.892zm6.05 4.3c.956-1.434.637-3.345-.796-4.46-1.433-.955-3.344-.636-4.459.797-.955 1.433-.636 3.344.797 4.458 1.433.956 3.344.637 4.458-.796zM16.562 21.338l-5.733-6.37 8.758.478-3.98-4.14.795-.637 5.733 6.21-8.758-.478 3.98 4.3-.795.637zM18.95 8.758l4.776-2.866.478.796-3.822 2.389 1.115 2.07 3.185-1.911.477.796-3.184 1.91 1.433 2.39 3.822-2.39.636.797-4.777 2.866-4.14-6.847zM35.67 1.274l-2.867 8.28 5.096-1.592.318.955-7.006 2.23 3.025-8.281-4.618 1.433-.318-.955 6.37-2.07zM41.88.16c2.229-.16 4.299 1.433 4.458 3.821.319 2.389-1.433 4.3-3.662 4.618-2.23.16-4.3-1.433-4.459-3.822C37.9 2.547 39.491.477 41.88.16zm.637 7.324c1.751-.159 3.025-1.751 2.866-3.503-.16-1.752-1.752-3.025-3.503-2.866-1.752.159-2.867 1.91-2.707 3.662.159 1.752 1.751 2.866 3.344 2.707zM52.548 8.44l-1.751-3.185-1.433-.16-.319 3.026-.955-.16L48.727 0l3.184.318c1.115.16 2.23.956 2.07 2.707-.159 1.434-1.114 2.23-2.229 2.23l1.752 3.344-.956-.16zm-3.025-4.46l2.07.16c1.115.16 1.592-.478 1.592-1.274s-.318-1.433-1.433-1.592l-2.07-.16-.159 2.867zM61.147 8.44l-3.822-1.115-1.433 1.592-1.115-.318 6.37-7.007 1.433 9.236-1.115-.319-.318-2.07zM58.12 6.528l3.026.796-.637-3.503-2.389 2.707zM69.109 14.331l-3.185-1.91 4.14-6.848 2.707 1.593c.955.637 2.07 1.592 1.115 3.184-.478.796-1.115.956-1.593 1.115.478.478.796 1.274.16 2.23-.797 1.432-2.389 1.273-3.344.636zm.637-.955c.477.318 1.433.637 1.91-.319.478-.796-.159-1.433-.637-1.751L68.79 9.873l-1.274 2.07 2.23 1.433zm.636-6.37l-1.273 2.07 1.91 1.115c.478.318 1.274.318 1.752-.478.478-.955-.16-1.433-.796-1.751l-1.593-.956zM77.707 18.63l-3.025-2.706-1.911.796-.796-.796 8.598-3.663-2.707 9.077-.796-.637.637-2.07zm-2.07-3.025l2.23 2.07 1.114-3.503-3.344 1.433zM81.37 25.796l1.115-3.503-.796-1.115L79.3 23.09l-.796-.796 6.37-4.936 1.91 2.547c.637.956.796 2.389-.478 3.344-1.114.956-2.388.637-3.184 0l-1.115 3.504-.637-.956zm1.115-5.255l1.274 1.593c.637.796 1.433.796 2.07.318.637-.478.796-1.114.159-2.07l-1.274-1.592-2.23 1.751z"></path></g><defs><clipPath id="clip0"><path fill="#fff" d="M0 0h94.108v100H0z"></path></clipPath></defs></svg>