<svg xmlns="http://www.w3.org/2000/svg" viewBox="0 0 101.7 20.5" xml:space="preserve"><path d="M11.2 7.7 13.4 0h-11l2.3 7.7H0v12.7h15.9V7.7h-4.7zM3.7.9h8.6l-2 6.8H5.6L3.7.9zM15 19.6H.9v-11H15v11zM34.1 0c-4.5 0-8.2 4.6-8.2 10.2s3.7 10.2 8.2 10.2 8.2-4.6 8.2-10.2S38.6 0 34.1 0zm7.3 9.8c-1.9 0-3.5-.7-4.8-1.9-1.2-1.2-1.9-2.9-1.9-4.7V.9c3.6.4 6.5 4.2 6.7 8.9zm-2.6.4c-1 .4-2 1-2.7 1.8-.8.8-1.4 1.7-1.8 2.7-.4-1-1-2-1.8-2.7-.8-.8-1.7-1.4-2.7-1.8 1-.4 2-1 2.7-1.8.8-.8 1.4-1.7 1.8-2.7.4 1 1 2 1.8 2.7.7.9 1.6 1.5 2.7 1.8zm-5-9.3v2.2c0 1.8-.7 3.4-1.9 4.7C30.7 9 29 9.7 27.2 9.7h-.4C27 5 30 1.1 33.8.9zm-7 9.8h.4c1.8 0 3.4.7 4.7 1.9s1.9 2.9 1.9 4.7v2.2c-3.8-.1-6.8-4-7-8.8zm7.9 8.8v-2.2c0-1.8.7-3.4 1.9-4.7 1.2-1.2 2.9-1.9 4.7-1.9h.1c-.2 4.7-3.1 8.4-6.7 8.8zM66.1 6c-2-1.9-3.9-3.6-3.9-6h-.9c0 2.4-1.9 4.1-3.9 6-2.4 2.2-5 4.7-5 8.6 0 .7.1 1.4.3 2 .2.6.6 1.2 1.1 1.7.5.5 1 .9 1.6 1.2.6.3 1.3.5 2 .5.9 0 1.9-.3 2.6-.8.8-.5 1.4-1.2 1.8-2 .4.8 1 1.6 1.8 2 .8.5 1.7.8 2.6.8 1.4-.1 2.7-.7 3.6-1.7.9-1 1.4-2.4 1.3-3.7.1-4-2.6-6.4-5-8.6zm.1 13.1c-1 0-2.1-.4-2.8-1.1-.7-.7-1.2-1.7-1.2-2.8 0-.8.3-1.6.8-2.3.5-.7 1.2-1.2 2-1.4l-.3-.8c-.6.2-1.2.5-1.7 1-.5.4-.9 1-1.2 1.6-.3-.6-.7-1.1-1.2-1.6-.5-.4-1.1-.8-1.7-1l-.3.8c.8.3 1.5.7 2 1.4s.8 1.5.8 2.3c0 1-.4 2-1.2 2.8s-1.8 1.1-2.8 1.1c-1.1-.1-2.2-.6-2.9-1.5-.7-.8-1.1-2-1.1-3.1 0-3.5 2.4-5.7 4.8-7.9C59.8 5.4 61 3.8 62 2.1c.9 1.7 2.2 3.2 3.7 4.5 2.3 2.2 4.8 4.4 4.8 7.9.1 1.1-.3 2.3-1.1 3.1-1 .9-2 1.4-3.2 1.5zM91.5 0c-2 0-4 .6-5.7 1.7-1.7 1.1-3 2.7-3.8 4.6-.8 1.9-1 3.9-.6 5.9.4 2 1.4 3.8 2.8 5.2s3.3 2.4 5.2 2.8c2 .4 4 .2 5.9-.6 1.9-.8 3.5-2.1 4.6-3.8 1.1-1.7 1.7-3.7 1.7-5.7 0-2.7-1.1-5.3-3-7.2C96.8 1.1 94.2 0 91.5 0zm0 19.5c-1.8 0-3.6-.5-5.2-1.6-1.5-1-2.7-2.5-3.4-4.2-.7-1.7-.9-3.6-.5-5.4.4-1.8 1.2-3.5 2.6-4.8 1.3-1.3 3-2.2 4.8-2.6 1.8-.4 3.7-.2 5.4.5 1.7.7 3.2 1.9 4.2 3.4S101 8.1 101 10c0 2.5-1 4.8-2.7 6.6-2 1.9-4.4 2.9-6.8 2.9z"></path><path d="M91.5 3.2c-1.4 0-2.7.4-3.9 1.2-1.2.8-2 1.9-2.6 3.1-.5 1.3-.7 2.7-.4 4s.9 2.6 1.9 3.6c1 1 2.2 1.6 3.6 1.9 1.4.3 2.8.1 4-.4 1.3-.5 2.4-1.4 3.1-2.6.8-1.2 1.2-2.5 1.2-3.9 0-1.9-.7-3.6-2.1-4.9-1.2-1.3-3-2-4.8-2zm0 13.1c-1.2 0-2.4-.4-3.4-1-1-.7-1.8-1.6-2.2-2.7-.5-1.1-.6-2.3-.3-3.5.2-1.2.8-2.3 1.7-3.1.9-.9 1.9-1.4 3.1-1.7 1.2-.2 2.4-.1 3.5.3 1.1.5 2.1 1.2 2.7 2.2.7 1 1 2.2 1 3.4 0 1.6-.7 3.1-1.8 4.3-1.2 1.1-2.7 1.8-4.3 1.8z"></path><path d="M91.5 7.7c-.5 0-1 .2-1.4.4-.4.3-.8.7-.9 1.2-.2.5-.2 1-.1 1.5s.3 1 .7 1.3c.4.4.8.6 1.3.7.5.1 1 0 1.5-.1.5-.2.9-.5 1.2-.9.3-.4.4-.9.4-1.4 0-.7-.3-1.3-.8-1.8s-1.2-.9-1.9-.9zm0 4.2c-.3 0-.7-.1-.9-.3-.3-.2-.5-.4-.6-.7-.1-.3-.2-.6-.1-1 .1-.3.2-.6.5-.9.2-.2.5-.4.9-.5.3-.1.7 0 1 .1.3.1.6.3.7.6.2.3.3.6.3.9 0 .4-.2.9-.5 1.2-.5.4-.9.6-1.3.6z"></path>
    </svg>